<?xml version="1.0" encoding="UTF-8" standalone="no"?><!DOCTYPE svg PUBLIC "-//W3C//DTD SVG 1.1//EN" "http://www.w3.org/Graphics/SVG/1.1/DTD/svg11.dtd"><svg width="100%" height="100%" viewBox="0 0 5 5" version="1.1" xmlns="http://www.w3.org/2000/svg" xmlns:xlink="http://www.w3.org/1999/xlink" xml:space="preserve" xmlns:serif="http://www.serif.com/" style="fill-rule:evenodd;clip-rule:evenodd;stroke-linecap:round;stroke-linejoin:round;stroke-miterlimit:1.5;"><g><g><path d="M2.261,1.29c0,0 0.173,-0.254 0.311,-0.402c0.137,-0.149 0.321,-0.297 0.626,-0.288c0.305,0.009 0.819,0.606 0.514,1.323c-0.305,0.716 -1.447,2.154 -1.447,2.154l-0.004,-2.787Z" style="fill:#ff0808;"/><path d="M2.456,1.518c0,0 -0.361,-0.482 -0.498,-0.63c-0.138,-0.149 -0.322,-0.297 -0.627,-0.288c-0.305,0.009 -0.819,0.606 -0.514,1.322c0.305,0.717 1.448,2.155 1.448,2.155l0.191,-2.559Z" style="fill:#ff0808;"/><path d="M2.074,1.518c0,0 0.36,-0.482 0.498,-0.63c0.137,-0.149 0.321,-0.297 0.626,-0.288c0.305,0.009 0.819,0.606 0.514,1.322c-0.305,0.717 -1.447,2.155 -1.447,2.155l-0.191,-2.559Z" style="fill:#ff0808;"/></g><g><g><g><path d="M2.746,-5.457c0,0 0.207,0.707 0.672,1.617c0.244,0.476 0.468,0.975 0.626,1.342c0.144,0.333 0.261,0.697 0.245,0.959c-0.017,0.263 -0.452,0.694 -0.896,0.582c-0.443,-0.113 -0.743,-0.907 -0.743,-0.907l-0.304,0.031c0,0 0.398,1.164 1.015,1.198c0.616,0.035 1.293,-0.506 1.297,-0.862c0.01,-0.723 -0.694,-1.771 -1.015,-2.434c-0.322,-0.663 -1.092,-1.825 -1.092,-1.825l0.195,0.299Z" style="fill:#2c2a23;stroke:#2c2a23;stroke-width:0.22px;"/></g></g></g></g></svg>