<?xml version="1.0" encoding="UTF-8" standalone="no"?><!DOCTYPE svg PUBLIC "-//W3C//DTD SVG 1.1//EN" "http://www.w3.org/Graphics/SVG/1.1/DTD/svg11.dtd"><svg width="100%" height="100%" viewBox="0 0 30 13" version="1.1" xmlns="http://www.w3.org/2000/svg" xmlns:xlink="http://www.w3.org/1999/xlink" xml:space="preserve" xmlns:serif="http://www.serif.com/" style="fill-rule:evenodd;clip-rule:evenodd;stroke-linejoin:round;stroke-miterlimit:1.5;"><g><path d="M3.994,12.337l-2.453,0c-0.677,0 -1.227,-0.55 -1.227,-1.227l0,-2.454c0,-0.677 0.55,-1.226 1.227,-1.226l2.453,0c0.677,0 1.227,0.549 1.227,1.226l0,2.454c0,0.677 -0.55,1.227 -1.227,1.227Zm-2.497,-1.793c0.265,0 0.48,0.215 0.48,0.48c0,0.266 -0.215,0.481 -0.48,0.481c-0.266,0 -0.481,-0.215 -0.481,-0.481c0,-0.265 0.215,-0.48 0.481,-0.48Zm2.507,0c0.265,0 0.48,0.215 0.48,0.48c0,0.266 -0.215,0.481 -0.48,0.481c-0.265,0 -0.481,-0.215 -0.481,-0.481c0,-0.265 0.216,-0.48 0.481,-0.48Zm-1.237,-1.141c0.266,0 0.481,0.215 0.481,0.48c0,0.265 -0.215,0.481 -0.481,0.481c-0.265,0 -0.48,-0.216 -0.48,-0.481c0,-0.265 0.215,-0.48 0.48,-0.48Zm-1.27,-1.142c0.265,0 0.48,0.216 0.48,0.481c0,0.265 -0.215,0.481 -0.48,0.481c-0.266,0 -0.481,-0.216 -0.481,-0.481c0,-0.265 0.215,-0.481 0.481,-0.481Zm2.507,0c0.265,0 0.48,0.216 0.48,0.481c0,0.265 -0.215,0.481 -0.48,0.481c-0.265,0 -0.481,-0.216 -0.481,-0.481c0,-0.265 0.216,-0.481 0.481,-0.481Z" style="fill:#cecece;"/><path d="M28.036,12.337l-2.453,0c-0.678,0 -1.227,-0.55 -1.227,-1.227l0,-2.454c0,-0.677 0.549,-1.226 1.227,-1.226l2.453,0c0.677,0 1.227,0.549 1.227,1.226l0,2.454c0,0.677 -0.55,1.227 -1.227,1.227Zm-2.267,-1.793c0.265,0 0.481,0.215 0.481,0.48c0,0.266 -0.216,0.481 -0.481,0.481c-0.265,0 -0.48,-0.215 -0.48,-0.481c0,-0.265 0.215,-0.48 0.48,-0.48Zm2.156,0c0.265,0 0.48,0.215 0.48,0.48c0,0.266 -0.215,0.481 -0.48,0.481c-0.266,0 -0.481,-0.215 -0.481,-0.481c0,-0.265 0.215,-0.48 0.481,-0.48Zm-2.156,-1.141c0.265,0 0.481,0.215 0.481,0.48c0,0.265 -0.216,0.481 -0.481,0.481c-0.265,0 -0.48,-0.216 -0.48,-0.481c0,-0.265 0.215,-0.48 0.48,-0.48Zm2.156,0c0.265,0 0.48,0.215 0.48,0.48c0,0.265 -0.215,0.481 -0.48,0.481c-0.266,0 -0.481,-0.216 -0.481,-0.481c0,-0.265 0.215,-0.48 0.481,-0.48Zm-2.156,-1.142c0.265,0 0.481,0.216 0.481,0.481c0,0.265 -0.216,0.481 -0.481,0.481c-0.265,0 -0.48,-0.216 -0.48,-0.481c0,-0.265 0.215,-0.481 0.48,-0.481Zm2.156,0c0.265,0 0.48,0.216 0.48,0.481c0,0.265 -0.215,0.481 -0.48,0.481c-0.266,0 -0.481,-0.216 -0.481,-0.481c0,-0.265 0.215,-0.481 0.481,-0.481Z" style="fill:#cecece;"/><g><path d="M9.97,8.669c0.004,-0.68 0.177,-1.148 -1.142,-1.132c-1.321,0.015 -1.13,0.365 -1.191,2.183c-0.061,1.818 -0.07,1.897 1.097,1.98c1.167,0.082 1.242,-0.468 1.242,-0.468l0.047,-1.294l-1.275,0" style="fill:none;stroke:#cecece;stroke-width:0.73px;"/><g><path d="M11.598,11.999c0,0 0.128,-0.079 0.327,-0.456c0.2,-0.378 0.039,-0.746 0.039,-0.746c0,0 -0.418,0.269 -0.816,0.26c-0.397,-0.008 -1.067,-0.548 -0.67,-1.197c0.398,-0.648 1.886,-1.95 1.886,-1.95l0.378,4.089l-1.144,0Z" style="fill:#cecece;"/><path d="M13.131,11.999c0,0 -0.128,-0.079 -0.328,-0.456c-0.199,-0.378 -0.038,-0.746 -0.038,-0.746c0,0 0.418,0.269 0.816,0.26c0.397,-0.008 1.067,-0.548 0.669,-1.197c-0.397,-0.648 -1.886,-1.95 -1.886,-1.95l-0.305,4.089l1.072,0Z" style="fill:#cecece;"/></g><path d="M14.372,11.887l0.987,-3.376l0.416,2.534l0.911,-2.43l0.161,3.071" style="fill:none;stroke:#cecece;stroke-width:0.73px;"/><g><path d="M20.04,8.375c-0.425,0.041 -1.337,0.245 -1.337,0.245l-0.375,1.169l-0.554,1.867l1.628,-0.335" style="fill:none;stroke:#cecece;stroke-width:0.73px;"/><path d="M18.307,10.016l1.284,-0.181" style="fill:none;stroke:#cecece;stroke-width:0.73px;"/></g><path d="M22.394,8.767c0,0 -2.16,-0.149 -2.014,0.699c0.145,0.848 1.778,0.299 1.695,1.304c-0.084,1.004 -1.897,0.871 -2.035,0.866" style="fill:none;stroke:#cecece;stroke-width:0.73px;"/></g><g><g><g><path d="M0.192,0.441l0.002,6.606l0.228,-0.019l-0.059,-6.585l-0.171,-0.002Z" style="fill:#cecece;stroke:#cecece;stroke-width:0.22px;stroke-linecap:round;"/><path d="M2.089,0.441l0.003,6.606l0.227,-0.019l-0.059,-6.585l-0.171,-0.002Z" style="fill:#cecece;stroke:#cecece;stroke-width:0.22px;stroke-linecap:round;"/><path d="M0.199,3.656l2.078,-0.003l-0.006,-0.227l-2.072,0.059l0,0.171Z" style="fill:#cecece;stroke:#cecece;stroke-width:0.22px;stroke-linecap:round;"/></g><g><path d="M4.566,0.441l0.003,6.606l0.228,-0.019l-0.06,-6.585l-0.171,-0.002Z" style="fill:#cecece;stroke:#cecece;stroke-width:0.22px;stroke-linecap:round;"/><path d="M6.519,3.614l0.001,3.433l0.118,-0.01l0.01,-3.58l-0.129,0.157Z" style="fill:#cecece;stroke:#cecece;stroke-width:0.22px;stroke-linecap:round;"/><path d="M5.666,3.656l0.985,-0.003l-0.002,-0.227l-0.983,0.059l0,0.171Z" style="fill:#cecece;stroke:#cecece;stroke-width:0.22px;stroke-linecap:round;"/><path d="M4.573,7.06l2.078,-0.003l-0.006,-0.228l-2.071,0.06l-0.001,0.171Z" style="fill:#cecece;stroke:#cecece;stroke-width:0.22px;stroke-linecap:round;"/><path d="M4.573,0.592l2.078,-0.003l-0.006,-0.227l-2.071,0.059l-0.001,0.171Z" style="fill:#cecece;stroke:#cecece;stroke-width:0.22px;stroke-linecap:round;"/></g><g><path d="M7.455,0.407l0.003,6.606l0.228,-0.019l-0.06,-6.585l-0.171,-0.002Z" style="fill:#cecece;stroke:#cecece;stroke-width:0.22px;stroke-linecap:round;"/><path d="M9.353,0.407l0.002,6.606l0.228,-0.019l-0.06,-6.585l-0.17,-0.002Z" style="fill:#cecece;stroke:#cecece;stroke-width:0.22px;stroke-linecap:round;"/><path d="M7.462,3.622l2.078,-0.002l-0.006,-0.228l-2.071,0.059l-0.001,0.171Z" style="fill:#cecece;stroke:#cecece;stroke-width:0.22px;stroke-linecap:round;"/></g><path d="M3.309,0.441l0.002,6.606l0.228,-0.019l-0.06,-6.585l-0.17,-0.002Z" style="fill:#cecece;stroke:#cecece;stroke-width:0.22px;stroke-linecap:round;"/></g><g><g id="E"><path d="M24,0.459l0.003,6.558l0.226,-0.019l-0.059,-6.537l-0.17,-0.002Z" style="fill:#cecece;stroke:#cecece;stroke-width:0.22px;stroke-linecap:round;"/><path d="M24.007,3.651l2.063,-0.003l-0.006,-0.226l-2.056,0.059l-0.001,0.17Z" style="fill:#cecece;stroke:#cecece;stroke-width:0.22px;stroke-linecap:round;"/><path d="M24.006,7.022l2.063,-0.002l-0.006,-0.226l-2.056,0.059l-0.001,0.169Z" style="fill:#cecece;stroke:#cecece;stroke-width:0.22px;stroke-linecap:round;"/><path d="M24.006,0.401l2.063,-0.002l-0.006,-0.226l-2.056,0.059l-0.001,0.169Z" style="fill:#cecece;stroke:#cecece;stroke-width:0.22px;stroke-linecap:round;"/></g><g><path d="M20.898,0.233l0.003,6.811l0.228,-0.02l-0.06,-6.789l-0.171,-0.002Z" style="fill:#cecece;stroke:#cecece;stroke-width:0.22px;stroke-linecap:round;"/><path d="M20.906,3.998l1.866,-3.763l0.198,0.112l-1.91,3.726l-0.154,-0.075Z" style="fill:#cecece;stroke:#cecece;stroke-width:0.22px;stroke-linecap:round;"/><path d="M20.934,3.091l1.959,3.951l0.198,-0.112l-2.003,-3.914l-0.154,0.075Z" style="fill:#cecece;stroke:#cecece;stroke-width:0.22px;stroke-linecap:round;"/></g><g><path d="M18.884,0.407l-1.05,6.586l0.14,0.032l1.013,-6.578l-0.103,-0.04Z" style="fill:#cecece;stroke:#cecece;stroke-width:0.22px;stroke-linecap:round;"/><path d="M18.914,0.393l1.061,6.651l0.133,-0.071l-1.091,-6.617l-0.103,0.037Z" style="fill:#cecece;stroke:#cecece;stroke-width:0.22px;stroke-linecap:round;"/><path d="M18.371,3.901l1.154,-0.003l-0.003,-0.215l-1.151,0.056l0,0.162Z" style="fill:#cecece;stroke:#cecece;stroke-width:0.22px;stroke-linecap:round;"/></g><g><path d="M16.258,0.407l0.003,6.606l0.228,-0.019l-0.06,-6.585l-0.171,-0.002Z" style="fill:#cecece;stroke:#cecece;stroke-width:0.22px;stroke-linecap:round;"/><path d="M15.336,0.571l2.078,-0.002l-0.006,-0.228l-2.072,0.06l0,0.17Z" style="fill:#cecece;stroke:#cecece;stroke-width:0.22px;stroke-linecap:round;"/></g><g><path d="M27.067,2.122c0,0 0.207,0.707 0.673,1.617c0.243,0.476 0.467,0.975 0.626,1.342c0.143,0.333 0.261,0.697 0.244,0.959c-0.016,0.263 -0.452,0.694 -0.895,0.582c-0.443,-0.113 -0.744,-0.907 -0.744,-0.907l-0.303,0.031c0,0 0.398,1.164 1.014,1.198c0.617,0.035 1.293,-0.506 1.298,-0.862c0.01,-0.723 -0.695,-1.771 -1.016,-2.434c-0.321,-0.663 -1.091,-1.825 -1.091,-1.825l0.194,0.299Z" style="fill:#cecece;stroke:#cecece;stroke-width:0.22px;stroke-linecap:round;"/><path d="M28.699,5.274c0,0 -0.327,-0.892 -0.792,-1.802c-0.244,-0.476 -0.468,-0.975 -0.626,-1.341c-0.144,-0.334 -0.261,-0.698 -0.245,-0.96c0.017,-0.262 0.452,-0.694 0.896,-0.582c0.443,0.113 0.743,0.907 0.743,0.907l0.304,-0.03c0,0 -0.398,-1.165 -1.015,-1.199c-0.616,-0.035 -1.293,0.507 -1.297,0.862c-0.01,0.723 0.694,1.771 1.015,2.434c0.322,0.664 1.092,1.825 1.092,1.825l-0.075,-0.114Z" style="fill:#cecece;stroke:#cecece;stroke-width:0.22px;stroke-linecap:round;"/></g><g><path d="M12.866,2.122c0,0 0.207,0.707 0.673,1.617c0.243,0.476 0.467,0.975 0.625,1.342c0.144,0.333 0.262,0.697 0.245,0.959c-0.016,0.263 -0.452,0.694 -0.895,0.582c-0.443,-0.113 -0.744,-0.907 -0.744,-0.907l-0.303,0.031c0,0 0.398,1.164 1.014,1.198c0.617,0.035 1.293,-0.506 1.298,-0.862c0.009,-0.723 -0.695,-1.771 -1.016,-2.434c-0.321,-0.663 -1.092,-1.825 -1.092,-1.825l0.195,0.299Z" style="fill:#cecece;stroke:#cecece;stroke-width:0.22px;stroke-linecap:round;"/><path d="M14.498,5.274c0,0 -0.327,-0.892 -0.792,-1.802c-0.244,-0.476 -0.468,-0.975 -0.626,-1.341c-0.144,-0.334 -0.261,-0.698 -0.245,-0.96c0.017,-0.262 0.452,-0.694 0.895,-0.582c0.443,0.113 0.744,0.907 0.744,0.907l0.304,-0.03c0,0 -0.398,-1.165 -1.015,-1.199c-0.616,-0.035 -1.293,0.507 -1.298,0.862c-0.009,0.723 0.695,1.771 1.016,2.434c0.321,0.664 1.092,1.825 1.092,1.825l-0.075,-0.114Z" style="fill:#cecece;stroke:#cecece;stroke-width:0.22px;stroke-linecap:round;"/></g></g></g></g></svg>