<?xml version="1.0" encoding="UTF-8" standalone="no"?><!DOCTYPE svg PUBLIC "-//W3C//DTD SVG 1.1//EN" "http://www.w3.org/Graphics/SVG/1.1/DTD/svg11.dtd"><svg width="100%" height="100%" viewBox="0 0 72 74" version="1.1" xmlns="http://www.w3.org/2000/svg" xmlns:xlink="http://www.w3.org/1999/xlink" xml:space="preserve" xmlns:serif="http://www.serif.com/" style="fill-rule:evenodd;clip-rule:evenodd;stroke-linecap:square;stroke-miterlimit:1.5;"><rect id="Artboard1" x="-7.356" y="-59.071" width="83.591" height="181.003" style="fill:none;"/><clipPath id="_clip1"><rect id="Artboard11" serif:id="Artboard1" x="-7.356" y="-59.071" width="83.591" height="181.003"/></clipPath><g clip-path="url(#_clip1)"><g id="Logotype"><g id="Rocket"><g id="t"><path d="M51.653,1.185c0,0 -3.033,9.639 -2.627,12.558c0.406,2.918 0.038,3.564 1.455,5.217c1.416,1.652 2.569,0.835 3.904,0.372c1.336,-0.462 2.054,-2.21 2.054,-2.21c0,0 -2.025,0.676 -3.287,0.538c-1.263,-0.139 -1.705,-1.645 -1.712,-2.6c-0.007,-0.954 -0.504,-2.451 -0.167,-3.899c0.338,-1.448 0.38,-9.976 0.38,-9.976Z" style="fill:#ff0808;"/><path d="M56.439,1.881c0,0 -6.396,2.71 -7.063,3.444c-0.666,0.734 -1.534,2.818 -1.534,2.818c0,0 5.723,-3.154 6.778,-4.115c1.054,-0.96 1.819,-2.147 1.819,-2.147Z" style="fill:#ff0808;"/></g><path id="e" d="M45.415,13.097c0.122,-0.167 3.173,-3.323 3.173,-2.996c0,0.346 -1.419,2.353 -1.547,2.73c-0.128,0.378 -2.681,2.723 -3.519,3.266c-0.839,0.543 -2.459,0.761 -3.08,0.393c-0.62,-0.368 -0.619,-1.793 -0.767,-3.14c-0.148,-1.347 0.923,-3.568 1.361,-4.108c0.437,-0.54 2.169,-1.359 3.198,-1.199c1.029,0.161 -0.522,3.168 -1.087,4.125c-0.565,0.956 -0.858,1.956 -0.473,2.372c0.345,0.371 2.475,-1.249 2.741,-1.443Zm0,0c-0.007,0.01 -0.005,0.01 0.01,-0.002c0.027,-0.023 0.021,-0.021 -0.01,0.002Zm-3.592,-3.348c-0.608,0.778 -1.021,1.706 -0.513,2.181c0.507,0.474 1.966,-1.683 1.96,-2.343c-0.005,-0.661 -0.839,-0.615 -1.447,0.162Z" style="fill:#ff0808;"/><path id="k" d="M34.75,6.794c0,0 0.437,1.476 0.392,3.635c-0.034,1.652 -0.52,3.997 -0.687,4.631c-0.205,0.776 -1.438,4.003 -2.815,6.592c-1.22,2.295 -2.614,4.027 -2.614,4.027c0,0 3.737,-4.444 4.534,-5.377c0.797,-0.932 2.934,-4.056 2.934,-4.056c0,0 1.383,3.162 3.012,5.552c1.63,2.39 5.229,7.154 5.229,7.154c0,0 -3.097,-6.741 -4.101,-8.894c-1.003,-2.153 -2.905,-5.909 -2.905,-5.909c0,0 0.87,-1.892 1.774,-4.134c0.904,-2.241 1.4,-5.987 1.4,-5.987c0,0 -1.476,2.974 -1.999,4.337c-0.524,1.363 -2.183,4.22 -2.183,4.22c0,0 0.127,-1.251 -0.382,-2.568c-0.508,-1.318 -1.589,-3.223 -1.589,-3.223Z" style="fill:url(#_Radial2);"/><path id="c" d="M29.641,10.429c0,0 -2.804,2.941 -3.11,5.3c-0.307,2.359 0.082,2.672 0.828,2.908c0.747,0.237 5.307,-2.747 6.201,-7.476c0,0 -4.398,5.371 -5.334,4.939c-0.936,-0.433 1.415,-5.671 1.415,-5.671Z" style="fill:#ff0808;"/><path id="o" d="M23.819,11.355c-0.974,0.395 -2.093,2.773 -2.102,4.631c-0.008,1.858 -0.089,2.496 0.275,2.853c0.364,0.357 1.968,0.02 3.275,-2.337c1.308,-2.356 1.487,-4.033 1.05,-4.67c-0.438,-0.638 -1.524,-0.872 -2.498,-0.477Zm0.399,1.552c-0.3,0.139 -1.238,1.452 -1.196,1.992c0.042,0.54 0.025,0.663 0.283,0.663c0.257,0 0.876,-0.679 1.021,-1.047c0.145,-0.368 0.535,-0.975 0.496,-1.212c-0.039,-0.237 0.036,-0.469 -0.186,-0.488c-0.223,-0.019 -0.119,-0.048 -0.418,0.092Z" style="fill:#ff0808;"/><path id="r" d="M16.994,18.738c0.523,0.955 -0.931,5.632 -1.342,6.737c-0.411,1.106 -1.425,4.183 -4.678,4.124c-3.253,-0.059 -3.982,-2.748 -4.876,-4.022c-0.895,-1.274 -1.795,-6.794 -1.795,-6.794c0,0 1.675,4.787 3.299,6.258c1.624,1.471 2.397,1.957 3.547,1.957c1.15,0 1.918,-0.887 2.428,-1.959c0.51,-1.072 0.788,-4.485 0.788,-4.485l1.376,-9.822c0,0 0.887,-1.048 1.774,-1.499c0.887,-0.451 4.245,-0.902 4.539,0.401c0.294,1.303 -3.681,5.823 -3.681,5.823c0,0 4.21,5.396 5.412,6.919c1.202,1.524 4.28,6.058 2.693,11.661c-1.067,3.768 -3.563,6.198 -5.046,6.961c-1.483,0.764 -3.745,1.382 -5.893,0.331c-3.126,-1.529 -4.036,-1.788 -6.385,-4.932c-2.349,-3.144 -4.886,-9.093 -4.886,-9.093c0,0 1.986,4.62 5.726,7.61c3.741,2.989 5.935,2.744 8.716,1.008c2.781,-1.736 2.278,-7.211 1.986,-8.493c-0.292,-1.282 -3.433,-8.239 -3.702,-8.691c-0.006,-0.01 -0.012,-0.02 -0.018,-0.03c0,0 0.006,0.01 0.018,0.03Zm-0.104,-7.719l-0.26,4.001c0,0 3.705,-3.729 3.495,-4.837c-0.21,-1.108 -3.235,0.836 -3.235,0.836Z" style="fill:url(#_Radial3);"/></g><g><g id="Burger"><g id="e1" serif:id="e"><path d="M56.548,26.913c0,0 -1.809,1.884 -2.989,1.632c-1.179,-0.251 -2.069,-1.602 -2.011,-1.935c0.059,-0.332 0.113,-0.964 0.194,-1.093" style="fill:none;stroke:#71e773;stroke-width:0.96px;"/><path d="M51.742,25.495c0,0 2.876,0.111 3.252,-0.17c0.377,-0.281 0.728,-0.646 0.709,-1.069c-0.019,-0.423 -0.012,-0.987 -0.713,-1.211c-0.7,-0.223 -1.719,-0.002 -2.071,0.251c-0.352,0.253 -1.18,1.709 -1.177,2.199Z" style="fill:none;stroke:#71e773;stroke-width:0.96px;"/></g><g id="g"><path d="M50.301,23.358l0,3.725c0,0 -0.476,3.142 -0.888,3.285c-0.411,0.143 -1.699,0.432 -2.505,0.407" style="fill:none;stroke:#71e773;stroke-width:0.96px;"/><path d="M50.285,24.394c0,0 -0.127,-1.057 -0.848,-1.036c-0.72,0.022 -1.817,0.765 -1.84,1.514c-0.024,0.749 -0.788,1.978 0.528,2.762c1.317,0.784 2.053,-1.438 2.132,-1.845c0.079,-0.406 0.028,-1.395 0.028,-1.395Z" style="fill:none;stroke:#71e773;stroke-width:0.96px;"/></g><path id="r1" serif:id="r" d="M42.531,28.568l0.217,-3.845c0,0 0.491,-1.053 1.64,-1.279c1.15,-0.226 1.653,0.024 2.228,0.373" style="fill:none;stroke:#71e773;stroke-width:0.96px;"/><path id="r2" serif:id="r" d="M57.5,28.568l0.217,-3.845c0,0 0.491,-1.053 1.641,-1.279c1.149,-0.226 1.652,0.024 2.227,0.373" style="fill:none;stroke:#71e773;stroke-width:0.96px;"/><path id="u" d="M37.897,23.48c0,0 -1.072,1.794 -1.159,3.018c-0.087,1.224 0.044,1.727 0.643,2.039c0.599,0.312 2.03,-1.781 2.576,-2.855c0.546,-1.074 1.187,-2.357 1.187,-2.357c0,0 -1.228,2.539 -0.948,3.583c0.28,1.045 0.282,1.18 0.966,1.253" style="fill:none;stroke:#71e773;stroke-width:0.96px;"/><g id="B"><path d="M32.106,24.427l1.796,-0.861" style="fill:none;stroke:#71e773;stroke-width:0.92px;"/><path d="M33.071,19.366l-1.154,4.979l-0.52,4.223c0,0 2.427,0.052 3.328,-0.709c0.901,-0.761 1.321,-1.305 1.329,-2.339c0.009,-1.034 -0.022,-1.652 -0.778,-1.79c-0.756,-0.137 -1.453,-0.107 -1.453,-0.107c0,0 1.252,-0.899 1.412,-1.081c0.16,-0.183 0.889,-0.818 1.011,-1.095c0.123,-0.278 0.498,-0.644 0.466,-1.011c-0.032,-0.368 -0.504,-1.209 -0.829,-1.465c-0.326,-0.257 -0.899,-0.241 -1.264,-0.177c-0.365,0.065 -1.493,0.295 -1.548,0.572Z" style="fill:none;stroke:#71e773;stroke-width:0.96px;"/></g></g></g></g><g><g id="Layer1"><path d="M49.897,61.632l-0.009,-0.005l0.024,0.01l0.024,0.009l-0.009,-0.005l0.023,0.009l0.024,0.009l-0.01,-0.005l0.023,0.008l0.023,0.007l-0.011,-0.004l0.023,0.006l0.023,0.007l-0.011,-0.005l0.022,0.006l0.023,0.006l-0.012,-0.004l0.022,0.004l0.022,0.005l-0.013,-0.004l0.022,0.004l0.021,0.003l-0.013,-0.003l0.023,0.003l0.021,0.002l0.022,0.003l0.023,0.002l0.023,0.003l0.023,0.002l0.024,0.002l0.024,0.002l0.024,0.001l0.024,0.002l0.025,0.001l0.025,0.001l0.025,0.001l0.026,0.001l0.026,0.001l0.026,0.001l0.026,0l0.027,0l0.027,0l0.027,0l0.027,0l0.028,0l0.028,-0.001l0.028,0l0.029,-0.001l0.028,-0.001l0.028,-0.001l0.06,-0.003l0.059,-0.003l0.06,-0.004l0.062,-0.004l0.062,-0.005l0.062,-0.006l0.064,-0.006l0.064,-0.006l0.065,-0.007l0.066,-0.008l0.067,-0.008l0.067,-0.008l0.068,-0.009l0.069,-0.01l0.069,-0.009l0.07,-0.01l0.07,-0.011l0.071,-0.011l0.072,-0.011l0.072,-0.012l0.073,-0.012l0.073,-0.012l0.073,-0.012l0.075,-0.013l0.074,-0.013l0.151,-0.027l0.152,-0.027l0.154,-0.028l0.155,-0.029l0.157,-0.029l0.316,-0.058l0.16,-0.029l0.161,-0.029l0.161,-0.028l0.082,-0.014l0.081,-0.014l0.081,-0.013l0.082,-0.014l0.082,-0.013l0.081,-0.013l0.082,-0.013l0.083,-0.012l0.082,-0.012l0.082,-0.012l0.083,-0.011l0.082,-0.012l0.083,-0.01l0.083,-0.011l0.082,-0.009l0.083,-0.01l0.083,-0.009l0.083,-0.008l0.083,-0.008l0.083,-0.007l0.084,-0.007l0.083,-0.006l0.083,-0.006l0.084,-0.005l0.083,-0.004l0.083,-0.003l0.084,-0.003l0.082,-0.002l0.043,-0.001l0.042,0l0.042,0l0.042,0l0.041,0l0.042,0l0.042,0.001l0.042,0.001l0.042,0.001l0.042,0.001l0.042,0.002l0.042,0.002l0.042,0.002l0.042,0.002l0.042,0.003l0.042,0.003l0.042,0.003l0.042,0.003l0.042,0.004l0.042,0.004l0.042,0.005l0.042,0.004l0.042,0.005l0.042,0.006l0.042,0.005l0.043,0.006l0.042,0.007l0.042,0.006l0.042,0.007l0.042,0.008l0.043,0.008l0.042,0.008l0.042,0.008l0.043,0.009l0.042,0.01l0.042,0.009l0.042,0.01l0.043,0.011l0.042,0.011l0.042,0.012l0.043,0.012l0.042,0.012l0.042,0.013l0.042,0.013l0.043,0.014l0.042,0.014l0.042,0.015l0.042,0.015l0.042,0.016l0.042,0.017l0.042,0.017l0.042,0.017l0.042,0.018l0.042,0.019l0.042,0.019l0.041,0.02l0.042,0.02l0.041,0.021l0.041,0.022l0.042,0.022l0.041,0.023l0.04,0.023l0.041,0.024l0.041,0.025l0.04,0.025l0.04,0.026l0.04,0.027l0.04,0.027l0.039,0.028l0.039,0.029l0.039,0.029l0.039,0.03l0.038,0.03l0.038,0.032l0.038,0.031l0.037,0.033l0.037,0.033l0.037,0.034l0.036,0.035l0.036,0.035l0.035,0.035l0.035,0.037l0.035,0.037l0.033,0.036l0.051,0.056l0.049,0.056l0.048,0.055l0.048,0.056l0.046,0.055l0.046,0.056l0.045,0.056l0.044,0.056l0.043,0.057l0.043,0.056l0.042,0.056l0.041,0.057l0.04,0.057l0.039,0.056l0.038,0.057l0.038,0.057l0.037,0.056l0.037,0.057l0.035,0.056l0.035,0.057l0.034,0.056l0.034,0.057l0.033,0.056l0.032,0.056l0.031,0.056l0.031,0.056l0.03,0.056l0.03,0.056l0.029,0.055l0.028,0.055l0.028,0.055l0.028,0.055l0.026,0.055l0.027,0.054l0.025,0.054l0.026,0.054l0.024,0.053l0.025,0.054l0.023,0.052l0.024,0.053l0.023,0.052l0.022,0.052l0.022,0.052l0.022,0.051l0.022,0.051l0.021,0.051l0.04,0.099l0.04,0.098l0.039,0.096l0.037,0.094l0.037,0.093l0.07,0.177l0.068,0.171l0.032,0.082l0.033,0.079l0.032,0.076l0.031,0.075l0.032,0.073l0.015,0.033l0.015,0.034l0.016,0.033l0.015,0.033l0.015,0.032l0.015,0.031l0.015,0.031l0.015,0.03l0.015,0.029l0.015,0.028l0.015,0.028l0.014,0.027l0.015,0.026l0.015,0.025l0.014,0.025l0.015,0.024l0.014,0.023l0.014,0.023l0.014,0.022l0.014,0.021l0.014,0.02l0.014,0.019l0.014,0.019l0.014,0.018l0.014,0.018l0.013,0.017l0.014,0.016l0.013,0.015l0.013,0.015l0.014,0.015l0.013,0.013l0.013,0.014l0.013,0.012l0.013,0.012l0.013,0.012l0.012,0.011l0.013,0.011l0.013,0.01l0.013,0.01l0.012,0.009l0.016,0.012l0.004,0.002l0.006,0.005l0.007,0.004l0.006,0.004l0.007,0.004l0.006,0.005l0.007,0.004l0.006,0.004l0.007,0.004l0.007,0.004l0.006,0.004l0.007,0.004l0.007,0.003l0.007,0.004l0.007,0.004l0.007,0.004l0.007,0.003l0.007,0.004l0.008,0.004l0.007,0.004l0.008,0.003l0.007,0.004l0.008,0.003l0.008,0.004l0.008,0.004l0.009,0.004l0.032,0.019l0.033,0.019l0.033,0.019l0.033,0.019l0.034,0.019l0.033,0.018l0.034,0.019l0.034,0.018l0.035,0.019l0.034,0.018l0.034,0.019l0.035,0.018l0.035,0.018l0.035,0.018l0.035,0.017l0.035,0.018l0.035,0.018l0.035,0.017l0.035,0.017l0.036,0.018l0.035,0.017l0.034,0.016l0.073,0.034l0.071,0.033l0.071,0.033l0.072,0.031l0.071,0.032l0.071,0.03l0.071,0.031l0.071,0.029l0.07,0.029l0.071,0.029l0.069,0.028l0.07,0.027l0.069,0.026l0.068,0.026l0.067,0.026l0.067,0.024l0.066,0.024l0.066,0.024l0.064,0.023l0.064,0.022l0.063,0.021l0.061,0.021l0.061,0.02l0.059,0.019l0.058,0.019l0.057,0.018l0.055,0.017l0.054,0.017l0.053,0.016l0.051,0.015l0.05,0.015l0.048,0.014l0.046,0.013l0.044,0.012l0.042,0.012l0.041,0.011l0.038,0.01l0.037,0.009l0.034,0.009l0.031,0.008l0.03,0.006l0.026,0.007l0.024,0.005l0.02,0.004l-0.055,-0.024l-0.015,-0.004l0.008,0.001l0.003,0.001l0.004,0.002l0.056,0.013l-0.011,-0.002l0.044,0.011l-0.014,-0.002l0.031,0.008l-0.017,-0.003l0.023,0.007l-0.01,-0.002l-0.004,0.001l-0.01,-0.001l-0.014,-0.003l-0.018,-0.003l-0.001,0l0.748,0.326l0.592,0.617l0.32,0.793l-0.008,0.881l-0.001,0.002l0,0l0,0.003l-0.353,0.807l-0.616,0.593l-0.793,0.32l-0.881,-0.009l-0.002,0l-0.045,-0.01l-0.068,-0.018l-0.051,-0.015l-0.043,-0.014l-0.039,-0.013l-0.038,-0.014l-0.038,-0.014l-0.039,-0.014l-0.039,-0.016l-0.041,-0.016l-0.042,-0.018l-0.044,-0.018l-0.045,-0.019l-0.048,-0.02l-0.048,-0.022l-0.051,-0.022l-0.052,-0.023l-0.054,-0.025l-0.056,-0.025l-0.057,-0.027l-0.059,-0.027l-0.061,-0.029l-0.062,-0.03l-0.063,-0.03l-0.065,-0.032l-0.067,-0.033l-0.068,-0.034l-0.069,-0.035l-0.071,-0.036l-0.071,-0.037l-0.073,-0.038l-0.074,-0.039l-0.076,-0.04l-0.076,-0.041l-0.078,-0.042l-0.078,-0.044l-0.079,-0.044l-0.08,-0.045l-0.082,-0.046l-0.081,-0.047l-0.083,-0.049l-0.083,-0.049l-0.084,-0.05l-0.085,-0.051l-0.085,-0.053l-0.086,-0.053l-0.086,-0.054l-0.087,-0.056l-0.087,-0.056l-0.087,-0.057l-0.088,-0.059l-0.087,-0.059l-0.087,-0.06l-0.046,-0.031l-0.044,-0.031l-0.044,-0.031l-0.044,-0.031l-0.044,-0.032l-0.044,-0.032l-0.045,-0.032l-0.044,-0.033l-0.044,-0.032l-0.044,-0.033l-0.044,-0.033l-0.045,-0.034l-0.044,-0.034l-0.044,-0.034l-0.044,-0.034l-0.044,-0.034l-0.044,-0.035l-0.044,-0.035l-0.043,-0.036l-0.044,-0.035l-0.044,-0.036l-0.045,-0.037l-0.028,-0.024l-0.03,-0.024l-0.029,-0.025l-0.029,-0.025l-0.029,-0.025l-0.029,-0.025l-0.028,-0.025l-0.028,-0.026l-0.028,-0.025l-0.027,-0.026l-0.028,-0.026l-0.027,-0.026l-0.026,-0.026l-0.027,-0.026l-0.026,-0.027l-0.026,-0.027l-0.025,-0.026l-0.025,-0.027l-0.025,-0.027l-0.025,-0.027l-0.024,-0.027l-0.025,-0.028l-0.023,-0.027l-0.024,-0.028l-0.023,-0.027l-0.026,-0.03l-0.042,-0.053l-0.044,-0.056l-0.043,-0.057l-0.041,-0.056l-0.041,-0.057l-0.039,-0.056l-0.038,-0.057l-0.038,-0.057l-0.036,-0.058l-0.035,-0.057l-0.033,-0.057l-0.033,-0.057l-0.032,-0.057l-0.031,-0.057l-0.03,-0.057l-0.029,-0.057l-0.028,-0.056l-0.027,-0.057l-0.026,-0.056l-0.025,-0.056l-0.025,-0.056l-0.023,-0.056l-0.023,-0.055l-0.023,-0.056l-0.021,-0.054l-0.021,-0.055l-0.02,-0.055l-0.019,-0.054l-0.019,-0.053l-0.018,-0.054l-0.018,-0.053l-0.017,-0.053l-0.016,-0.053l-0.016,-0.052l-0.016,-0.052l-0.015,-0.051l-0.015,-0.052l-0.014,-0.051l-0.014,-0.05l-0.014,-0.051l-0.013,-0.051l-0.025,-0.098l-0.024,-0.097l-0.023,-0.097l-0.023,-0.095l-0.022,-0.095l-0.041,-0.184l-0.04,-0.181l-0.02,-0.088l-0.019,-0.088l-0.02,-0.086l-0.019,-0.086l-0.021,-0.085l-0.009,-0.041l-0.011,-0.042l-0.01,-0.041l-0.01,-0.041l-0.01,-0.041l-0.011,-0.041l-0.011,-0.04l-0.01,-0.041l-0.011,-0.04l-0.011,-0.04l-0.012,-0.039l-0.011,-0.04l-0.012,-0.039l-0.011,-0.039l-0.012,-0.039l-0.013,-0.039l-0.012,-0.039l-0.013,-0.038l-0.013,-0.039l-0.013,-0.038l-0.013,-0.038l-0.014,-0.038l-0.014,-0.038l-0.014,-0.038l-0.015,-0.037l-0.015,-0.038l-0.015,-0.037l-0.015,-0.038l-0.016,-0.037l-0.016,-0.037l-0.017,-0.038l-0.017,-0.037l-0.018,-0.037l-0.017,-0.037l-0.019,-0.037l-0.018,-0.037l-0.019,-0.037l-0.02,-0.037l-0.02,-0.037l-0.021,-0.037l-0.021,-0.037l-0.022,-0.037l-0.022,-0.038l-0.023,-0.037l-0.023,-0.037l-0.029,-0.043l0.012,0.014l-0.011,-0.017l-0.01,-0.016l0.013,0.016l-0.011,-0.016l-0.011,-0.015l0.014,0.015l-0.011,-0.016l-0.011,-0.015l0.014,0.015l-0.012,-0.015l-0.012,-0.015l0.015,0.014l-0.012,-0.015l-0.013,-0.015l0.015,0.014l-0.013,-0.015l-0.013,-0.014l0.015,0.013l-0.013,-0.015l-0.013,-0.014l0.015,0.013l-0.014,-0.015l-0.014,-0.013l0.015,0.011l-0.014,-0.014l-0.015,-0.013l0.015,0.011l-0.015,-0.014l-0.015,-0.013l0.015,0.01l-0.015,-0.013l-0.009,-0.008l-0.008,-0.009l-0.009,-0.008l-0.01,-0.008l-0.009,-0.009l-0.01,-0.008l-0.011,-0.009l-0.01,-0.008l-0.012,-0.008l-0.011,-0.009l-0.012,-0.008l-0.012,-0.009l-0.013,-0.008l-0.013,-0.009l-0.013,-0.008l-0.014,-0.009l-0.014,-0.008l-0.015,-0.009l-0.015,-0.008l-0.015,-0.009l-0.016,-0.008l-0.017,-0.009l-0.016,-0.008l-0.017,-0.008l-0.018,-0.008l-0.017,-0.008l-0.019,-0.009l-0.018,-0.008l-0.019,-0.008l-0.02,-0.008l-0.02,-0.007l-0.02,-0.008l-0.02,-0.008l-0.021,-0.007l-0.022,-0.008l-0.021,-0.007l-0.022,-0.008l-0.023,-0.007l-0.022,-0.007l-0.024,-0.007l-0.023,-0.007l-0.024,-0.007l-0.024,-0.007l-0.025,-0.006l-0.025,-0.007l-0.025,-0.006l-0.025,-0.007l-0.026,-0.006l-0.026,-0.006l-0.027,-0.006l-0.027,-0.006l-0.027,-0.005l-0.027,-0.006l-0.028,-0.006l-0.028,-0.005l-0.028,-0.005l-0.029,-0.005l-0.029,-0.005l-0.029,-0.005l-0.03,-0.005l-0.029,-0.005l-0.03,-0.004l-0.029,-0.005l-0.063,-0.008l-0.062,-0.008l-0.063,-0.008l-0.065,-0.007l-0.065,-0.007l-0.066,-0.006l-0.066,-0.005l-0.068,-0.006l-0.069,-0.005l-0.069,-0.004l-0.07,-0.004l-0.07,-0.004l-0.071,-0.003l-0.072,-0.003l-0.073,-0.002l-0.073,-0.002l-0.074,-0.002l-0.074,-0.001l-0.074,-0.002l-0.076,0l-0.075,-0.001l-0.076,0l-0.077,0l-0.077,0l-0.077,0l-0.078,0.001l-0.078,0.001l-0.077,0.001l-0.158,0.002l-0.158,0.004l-0.159,0.003l-0.32,0.008l-0.16,0.004l-0.16,0.004l-0.161,0.004l-0.16,0.003l-0.16,0.003l-0.08,0.001l-0.08,0.001l-0.079,0.001l-0.08,0l-0.079,0.001l-0.079,0l-0.079,0l-0.079,-0.001l-0.078,0l-0.078,-0.001l-0.078,-0.002l-0.078,-0.002l-0.077,-0.002l-0.078,-0.002l-0.076,-0.003l-0.077,-0.004l-0.076,-0.003l-0.076,-0.005l-0.076,-0.005l-0.075,-0.005l-0.074,-0.006l-0.075,-0.006l-0.074,-0.008l-0.073,-0.007l-0.073,-0.009l-0.037,-0.004l-0.036,-0.005l-0.037,-0.005l-0.036,-0.004l-0.036,-0.006l-0.036,-0.005l-0.036,-0.005l-0.035,-0.006l-0.036,-0.006l-0.035,-0.006l-0.036,-0.007l-0.035,-0.006l-0.035,-0.007l-0.035,-0.007l-0.035,-0.007l-0.035,-0.007l-0.034,-0.008l-0.035,-0.008l-0.034,-0.008l-0.034,-0.008l-0.035,-0.009l-0.034,-0.009l-0.033,-0.009l-0.034,-0.009l-0.034,-0.01l-0.035,-0.01l-0.039,-0.012l-0.04,-0.013l-0.04,-0.014l-0.04,-0.014l-0.039,-0.015l-0.039,-0.016l-0.038,-0.017l-0.038,-0.017l-0.037,-0.018l-0.037,-0.018l-0.037,-0.019l-0.036,-0.019l-0.036,-0.021l-0.036,-0.02l-0.035,-0.022l-0.034,-0.021l-0.035,-0.022l-0.034,-0.023l-0.034,-0.023l-0.033,-0.024l-0.033,-0.024l-0.033,-0.025l-0.032,-0.025l-0.032,-0.025l-0.032,-0.026l-0.031,-0.026l-0.031,-0.027l-0.031,-0.027l-0.031,-0.028l-0.03,-0.027l-0.03,-0.029l-0.03,-0.028l-0.03,-0.029l-0.029,-0.03l-0.029,-0.029l-0.029,-0.03l-0.029,-0.031l-0.028,-0.03l-0.028,-0.031l-0.028,-0.032l-0.028,-0.031l-0.027,-0.032l-0.028,-0.032l-0.027,-0.033l-0.027,-0.033l-0.026,-0.033l-0.027,-0.034l-0.026,-0.033l-0.027,-0.034l-0.026,-0.035l-0.026,-0.034l-0.025,-0.035l-0.026,-0.036l-0.025,-0.035l-0.025,-0.036l-0.025,-0.036l-0.025,-0.036l-0.025,-0.036l-0.025,-0.037l-0.024,-0.037l-0.024,-0.037l-0.025,-0.038l-0.024,-0.037l-0.023,-0.038l-0.024,-0.038l-0.024,-0.039l-0.023,-0.038l-0.023,-0.039l-0.024,-0.039l-0.023,-0.039l-0.023,-0.04l-0.022,-0.039l-0.023,-0.04l-0.023,-0.04l-0.022,-0.04l-0.022,-0.04l-0.022,-0.041l-0.022,-0.041l-0.022,-0.04l-0.022,-0.041l-0.022,-0.042l-0.022,-0.041l-0.042,-0.083l-0.042,-0.084l-0.042,-0.084l-0.041,-0.085l-0.041,-0.085l-0.041,-0.086l-0.039,-0.086l-0.04,-0.086l-0.039,-0.087l-0.038,-0.087l-0.039,-0.088l-0.037,-0.088l-0.037,-0.087l-0.037,-0.089l-0.036,-0.088l-0.036,-0.088l-0.036,-0.088l-0.035,-0.089l-0.034,-0.088l-0.034,-0.088l-0.034,-0.089l-0.033,-0.088l-0.032,-0.088l-0.033,-0.088l-0.031,-0.087l-0.032,-0.088l-0.031,-0.087l-0.03,-0.087l-0.03,-0.086l-0.029,-0.086l-0.03,-0.085l-0.028,-0.085l-0.028,-0.085l-0.028,-0.084l-0.027,-0.083l-0.027,-0.083l-0.026,-0.082l-0.026,-0.082l-0.025,-0.08l-0.025,-0.08l-0.024,-0.079l-0.024,-0.079l-0.024,-0.077l-0.022,-0.076l-0.023,-0.076l-0.022,-0.074l-0.021,-0.074l-0.042,-0.144l-0.039,-0.139l-0.038,-0.134l-0.035,-0.129l-0.034,-0.124l-0.031,-0.117l-0.03,-0.112l-0.027,-0.105l-0.025,-0.099l-0.023,-0.092l-0.021,-0.084l-0.019,-0.077l-0.017,-0.069l-0.015,-0.061l-0.022,-0.095l-0.014,-0.059l-0.004,-0.02l0.007,0.019l0.023,0.056l0.037,0.091l0.024,0.057l0.027,0.066l0.031,0.072l0.034,0.08l0.037,0.087l0.04,0.093l0.044,0.099l0.046,0.106l0.049,0.111l0.052,0.116l0.055,0.121l0.058,0.126l0.06,0.13l0.064,0.135l0.032,0.069l0.033,0.069l0.034,0.07l0.034,0.072l0.035,0.072l0.035,0.073l0.036,0.073l0.037,0.074l0.037,0.075l0.038,0.076l0.038,0.076l0.039,0.076l0.039,0.077l0.04,0.078l0.041,0.077l0.04,0.079l0.042,0.078l0.042,0.079l0.042,0.079l0.043,0.08l0.043,0.079l0.044,0.08l0.044,0.079l0.044,0.08l0.045,0.08l0.046,0.08l0.045,0.079l0.046,0.08l0.047,0.08l0.047,0.079l0.047,0.079l0.047,0.079l0.048,0.078l0.048,0.078l0.049,0.078l0.049,0.078l0.049,0.076l0.049,0.077l0.05,0.076l0.05,0.075l0.05,0.075l0.05,0.073l0.051,0.074l0.05,0.072l0.051,0.072l0.051,0.071l0.052,0.07l0.025,0.034l0.026,0.035l0.026,0.034l0.026,0.034l0.025,0.034l0.026,0.033l0.026,0.033l0.026,0.033l0.026,0.033l0.026,0.032l0.026,0.032l0.026,0.032l0.025,0.031l0.026,0.031l0.026,0.031l0.026,0.031l0.026,0.03l0.026,0.03l0.026,0.029l0.026,0.029l0.026,0.029l0.026,0.029l0.025,0.028l0.026,0.028l0.026,0.027l0.026,0.027l0.026,0.027l0.025,0.026l0.026,0.026l0.026,0.026l0.025,0.025l0.026,0.025l0.025,0.024l0.025,0.024l0.026,0.024l0.025,0.023l0.025,0.022l0.025,0.022l0.025,0.022l0.025,0.022l0.025,0.02l0.025,0.021l0.024,0.02l0.025,0.019l0.024,0.019l0.024,0.019l0.024,0.018l0.024,0.018l0.024,0.017l0.024,0.016l0.023,0.016l0.023,0.016l0.024,0.015l0.022,0.015l0.023,0.014l0.023,0.013l0.022,0.014l0.022,0.012l0.022,0.012l0.022,0.012l0.021,0.011l0.021,0.01l0.021,0.01l0.021,0.01l0.024,0.011l-0.008,-0.005l0.024,0.011l0.024,0.011Z" style="fill:#b4ac21;"/><path d="M37.89,54.642l4.746,3.826l5.638,4.56l2.76,2.244l2.525,2.064l2.141,1.768l0.88,0.736l0.73,0.618l0.29,0.283l0.253,0.308l0.39,0.613l0.312,0.668l0.003,0.007l-0.007,-0.002l-0.708,-0.205l-0.666,-0.292l-0.343,-0.201l-0.325,-0.244l-0.723,-0.625l-0.864,-0.757l-2.076,-1.842l-2.429,-2.176l-2.643,-2.381l-5.376,-4.867l-4.511,-4.099l-0.064,-0.058l0.067,0.054Z" style="fill:#fff;"/><path d="M46.227,53.243l4.46,3.777l5.293,4.5l2.589,2.212l2.365,2.033l2.002,1.739l0.822,0.722l0.678,0.606l0.241,0.253l0.204,0.279l0.302,0.559l0.224,0.616l0.002,0.005l-0.006,0l-0.636,-0.16l-0.587,-0.243l-0.298,-0.174l-0.277,-0.214l-0.672,-0.612l-0.804,-0.743l-1.935,-1.812l-2.266,-2.143l-2.467,-2.347l-5.021,-4.803l-4.216,-4.047l-0.06,-0.056l0.063,0.053Z" style="fill:#fff;"/><path d="M42.2,59.398l-0.005,-0.002l0.015,0.005l0.015,0.005l-0.006,-0.002l0.015,0.004l0.015,0.005l-0.006,-0.002l0.015,0.004l0.015,0.005l-0.007,-0.003l0.015,0.004l0.015,0.004l-0.007,-0.002l0.015,0.004l0.015,0.004l-0.007,-0.003l0.015,0.004l0.014,0.003l-0.006,-0.002l0.014,0.003l0.015,0.003l-0.007,-0.002l0.014,0.003l0.014,0.003l-0.007,-0.002l0.015,0.002l0.029,0.005l0.03,0.005l0.03,0.004l0.03,0.004l0.031,0.004l0.031,0.004l0.032,0.003l0.032,0.004l0.032,0.003l0.033,0.002l0.033,0.003l0.033,0.003l0.034,0.002l0.033,0.002l0.035,0.001l0.034,0.002l0.035,0.001l0.035,0.002l0.036,0l0.036,0.001l0.036,0.001l0.036,0l0.037,0l0.037,0l0.038,0l0.037,-0.001l0.038,-0.001l0.038,0l0.039,-0.002l0.039,-0.001l0.039,-0.001l0.039,-0.002l0.039,-0.002l0.04,-0.002l0.04,-0.002l0.041,-0.003l0.04,-0.002l0.041,-0.003l0.041,-0.003l0.041,-0.003l0.084,-0.007l0.084,-0.007l0.085,-0.008l0.086,-0.009l0.087,-0.009l0.088,-0.01l0.088,-0.011l0.089,-0.011l0.09,-0.011l0.091,-0.012l0.091,-0.013l0.092,-0.013l0.093,-0.013l0.094,-0.014l0.094,-0.014l0.094,-0.015l0.095,-0.015l0.096,-0.015l0.096,-0.015l0.097,-0.016l0.097,-0.016l0.098,-0.017l0.197,-0.033l0.199,-0.034l0.2,-0.034l0.201,-0.034l0.203,-0.035l0.204,-0.034l0.204,-0.034l0.103,-0.017l0.103,-0.017l0.103,-0.016l0.103,-0.016l0.104,-0.016l0.103,-0.016l0.104,-0.015l0.104,-0.015l0.104,-0.015l0.104,-0.014l0.104,-0.014l0.104,-0.014l0.104,-0.013l0.105,-0.013l0.104,-0.012l0.104,-0.011l0.105,-0.011l0.104,-0.011l0.105,-0.009l0.104,-0.009l0.104,-0.009l0.104,-0.007l0.053,-0.004l0.052,-0.003l0.052,-0.003l0.052,-0.003l0.052,-0.003l0.053,-0.003l0.052,-0.002l0.052,-0.002l0.052,-0.002l0.052,-0.002l0.052,-0.001l0.052,-0.001l0.052,-0.001l0.052,-0.001l0.052,0l0.052,0l0.052,0l0.052,0l0.052,0.001l0.052,0.001l0.052,0.001l0.052,0.001l0.052,0.002l0.052,0.002l0.052,0.002l0.051,0.003l0.052,0.003l0.052,0.003l0.052,0.004l0.052,0.004l0.051,0.004l0.052,0.005l0.052,0.005l0.052,0.005l0.051,0.006l0.052,0.006l0.051,0.007l0.052,0.007l0.052,0.007l0.051,0.007l0.052,0.009l0.051,0.008l0.052,0.009l0.051,0.009l0.051,0.01l0.052,0.011l0.051,0.01l0.051,0.011l0.052,0.012l0.051,0.012l0.051,0.013l0.051,0.013l0.051,0.014l0.051,0.014l0.051,0.015l0.051,0.015l0.051,0.016l0.051,0.016l0.05,0.017l0.051,0.018l0.05,0.018l0.051,0.018l0.05,0.02l0.05,0.02l0.05,0.02l0.05,0.021l0.05,0.022l0.05,0.023l0.049,0.023l0.05,0.024l0.049,0.024l0.049,0.025l0.049,0.026l0.048,0.027l0.049,0.027l0.048,0.028l0.048,0.029l0.048,0.029l0.047,0.03l0.047,0.031l0.047,0.032l0.047,0.032l0.046,0.033l0.046,0.034l0.046,0.035l0.045,0.035l0.045,0.036l0.044,0.037l0.044,0.038l0.044,0.038l0.043,0.039l0.043,0.04l0.042,0.041l0.042,0.041l0.042,0.042l0.04,0.043l0.041,0.044l0.04,0.044l0.039,0.045l0.036,0.043l0.033,0.038l0.029,0.035l0.03,0.036l0.029,0.035l0.029,0.036l0.029,0.036l0.029,0.035l0.028,0.036l0.028,0.036l0.027,0.036l0.028,0.036l0.027,0.036l0.027,0.036l0.027,0.036l0.026,0.036l0.026,0.036l0.026,0.036l0.026,0.036l0.025,0.036l0.025,0.036l0.025,0.037l0.025,0.036l0.025,0.036l0.024,0.036l0.024,0.037l0.023,0.036l0.024,0.036l0.024,0.038l0.045,0.071l0.045,0.073l0.044,0.072l0.043,0.073l0.043,0.072l0.041,0.073l0.041,0.072l0.039,0.073l0.039,0.072l0.039,0.072l0.037,0.072l0.037,0.072l0.036,0.071l0.035,0.072l0.034,0.071l0.034,0.071l0.033,0.071l0.033,0.071l0.032,0.07l0.031,0.07l0.031,0.07l0.03,0.07l0.029,0.069l0.029,0.069l0.029,0.069l0.028,0.068l0.027,0.068l0.027,0.067l0.027,0.068l0.026,0.067l0.025,0.066l0.025,0.066l0.025,0.066l0.025,0.065l0.024,0.065l0.024,0.065l0.046,0.126l0.046,0.126l0.044,0.123l0.043,0.121l0.043,0.119l0.083,0.232l0.04,0.111l0.041,0.109l0.04,0.108l0.019,0.052l0.02,0.051l0.02,0.051l0.02,0.051l0.019,0.049l0.02,0.049l0.02,0.048l0.019,0.047l0.02,0.047l0.02,0.046l0.019,0.045l0.02,0.044l0.019,0.044l0.02,0.042l0.02,0.042l0.02,0.041l0.019,0.04l0.02,0.04l0.02,0.038l0.02,0.038l0.019,0.037l0.02,0.036l0.02,0.036l0.02,0.034l0.02,0.034l0.02,0.033l0.02,0.032l0.02,0.031l0.021,0.031l0.02,0.03l0.021,0.031l0.009,0.012l0.01,0.014l0.01,0.014l0.01,0.013l0.011,0.014l0.01,0.013l0.01,0.013l0.01,0.013l0.01,0.013l0.011,0.012l0.01,0.013l0.01,0.012l0.01,0.012l0.011,0.012l0.01,0.012l0.01,0.011l0.011,0.012l0.01,0.011l0.011,0.011l0.01,0.011l0.01,0.011l0.011,0.011l0.011,0.01l0.01,0.011l0.011,0.01l0.01,0.01l0.011,0.01l0.011,0.01l0.011,0.01l0.011,0.01l0.01,0.009l0.011,0.01l0.011,0.009l0.012,0.009l0.011,0.01l0.011,0.009l0.011,0.009l0.012,0.009l0.011,0.009l0.012,0.008l0.011,0.009l0.012,0.009l0.012,0.008l0.012,0.009l0.012,0.008l0.012,0.009l0.013,0.008l0.012,0.008l0.013,0.008l0.013,0.009l0.012,0.008l0.013,0.008l0.014,0.008l0.014,0.009l0.042,0.027l0.044,0.029l0.044,0.028l0.044,0.028l0.044,0.028l0.045,0.028l0.044,0.027l0.045,0.028l0.045,0.027l0.045,0.027l0.046,0.027l0.045,0.027l0.046,0.026l0.045,0.027l0.046,0.026l0.046,0.026l0.046,0.026l0.046,0.025l0.047,0.026l0.046,0.025l0.046,0.025l0.047,0.025l0.046,0.025l0.047,0.024l0.046,0.025l0.047,0.024l0.046,0.024l0.047,0.024l0.046,0.023l0.047,0.024l0.046,0.023l0.047,0.023l0.046,0.022l0.047,0.023l0.046,0.022l0.046,0.022l0.046,0.022l0.047,0.022l0.045,0.021l0.045,0.021l0.093,0.042l0.091,0.041l0.09,0.04l0.089,0.04l0.089,0.038l0.088,0.037l0.087,0.037l0.086,0.035l0.085,0.035l0.084,0.034l0.083,0.032l0.081,0.032l0.08,0.031l0.079,0.03l0.077,0.029l0.076,0.028l0.074,0.027l0.072,0.026l0.07,0.025l0.069,0.024l0.067,0.023l0.064,0.022l0.063,0.02l0.06,0.02l0.058,0.019l0.056,0.018l0.053,0.017l0.051,0.016l0.048,0.014l0.045,0.014l0.043,0.012l0.039,0.011l0.036,0.01l0.033,0.009l0.029,0.008l0.02,0.005l-0.04,-0.018l-0.017,-0.004l0.011,0.001l0.002,0.001l0.004,0.002l0.057,0.014l-0.014,-0.003l0.046,0.013l-0.018,-0.004l0.032,0.009l-0.009,-0.001l-0.003,0l-0.01,-0.001l-0.015,-0.003l-0.021,-0.005l-0.005,-0.001l0.759,0.341l0.586,0.623l0.311,0.797l-0.018,0.881l-0.001,0.002l0.001,0l-0.001,0.002l-0.361,0.804l-0.623,0.586l-0.797,0.311l-0.88,-0.018l-0.003,0l-0.048,-0.012l-0.074,-0.02l-0.056,-0.017l-0.048,-0.016l-0.046,-0.016l-0.044,-0.016l-0.045,-0.017l-0.047,-0.018l-0.047,-0.019l-0.05,-0.021l-0.052,-0.021l-0.053,-0.023l-0.056,-0.024l-0.059,-0.025l-0.06,-0.026l-0.063,-0.028l-0.065,-0.03l-0.067,-0.03l-0.07,-0.032l-0.071,-0.034l-0.074,-0.034l-0.075,-0.037l-0.078,-0.037l-0.079,-0.039l-0.082,-0.04l-0.083,-0.042l-0.085,-0.042l-0.087,-0.045l-0.088,-0.045l-0.09,-0.047l-0.092,-0.048l-0.093,-0.05l-0.094,-0.051l-0.096,-0.052l-0.097,-0.053l-0.098,-0.055l-0.1,-0.056l-0.1,-0.058l-0.102,-0.058l-0.103,-0.06l-0.103,-0.062l-0.105,-0.062l-0.105,-0.064l-0.105,-0.065l-0.054,-0.033l-0.054,-0.034l-0.053,-0.034l-0.054,-0.034l-0.054,-0.034l-0.054,-0.035l-0.054,-0.035l-0.054,-0.035l-0.055,-0.036l-0.054,-0.036l-0.055,-0.036l-0.054,-0.037l-0.055,-0.037l-0.055,-0.037l-0.055,-0.038l-0.055,-0.038l-0.055,-0.038l-0.055,-0.038l-0.055,-0.039l-0.055,-0.04l-0.055,-0.039l-0.055,-0.04l-0.055,-0.04l-0.056,-0.041l-0.055,-0.041l-0.055,-0.041l-0.055,-0.041l-0.055,-0.042l-0.055,-0.042l-0.055,-0.043l-0.055,-0.043l-0.054,-0.043l-0.055,-0.044l-0.055,-0.043l-0.054,-0.045l-0.055,-0.044l-0.054,-0.045l-0.055,-0.045l-0.054,-0.046l-0.055,-0.047l-0.034,-0.028l-0.034,-0.03l-0.035,-0.03l-0.034,-0.03l-0.034,-0.03l-0.033,-0.031l-0.033,-0.03l-0.033,-0.031l-0.032,-0.031l-0.032,-0.031l-0.032,-0.032l-0.032,-0.031l-0.031,-0.032l-0.03,-0.032l-0.031,-0.032l-0.03,-0.032l-0.029,-0.032l-0.03,-0.033l-0.029,-0.032l-0.029,-0.033l-0.028,-0.033l-0.028,-0.033l-0.028,-0.033l-0.027,-0.033l-0.027,-0.033l-0.027,-0.033l-0.026,-0.034l-0.026,-0.033l-0.026,-0.034l-0.025,-0.034l-0.025,-0.034l-0.025,-0.034l-0.024,-0.034l-0.024,-0.034l-0.023,-0.034l-0.024,-0.034l-0.023,-0.034l-0.023,-0.035l-0.022,-0.034l-0.022,-0.034l-0.022,-0.035l-0.021,-0.034l-0.021,-0.035l-0.021,-0.034l-0.021,-0.035l-0.02,-0.034l-0.02,-0.035l-0.019,-0.034l-0.02,-0.035l-0.019,-0.035l-0.019,-0.034l-0.018,-0.035l-0.018,-0.035l-0.02,-0.036l-0.033,-0.067l-0.034,-0.069l-0.033,-0.07l-0.032,-0.069l-0.031,-0.068l-0.03,-0.069l-0.029,-0.069l-0.029,-0.068l-0.027,-0.069l-0.027,-0.068l-0.025,-0.068l-0.026,-0.067l-0.024,-0.068l-0.023,-0.067l-0.023,-0.067l-0.023,-0.067l-0.021,-0.067l-0.021,-0.067l-0.021,-0.066l-0.02,-0.066l-0.019,-0.066l-0.019,-0.065l-0.018,-0.065l-0.018,-0.065l-0.018,-0.065l-0.017,-0.065l-0.017,-0.064l-0.016,-0.064l-0.017,-0.064l-0.016,-0.064l-0.015,-0.064l-0.03,-0.125l-0.03,-0.125l-0.029,-0.124l-0.056,-0.245l-0.027,-0.122l-0.028,-0.12l-0.027,-0.12l-0.027,-0.119l-0.028,-0.119l-0.014,-0.058l-0.014,-0.058l-0.014,-0.058l-0.014,-0.058l-0.014,-0.058l-0.015,-0.058l-0.015,-0.057l-0.014,-0.058l-0.015,-0.057l-0.016,-0.057l-0.015,-0.056l-0.016,-0.057l-0.016,-0.056l-0.016,-0.056l-0.016,-0.056l-0.017,-0.056l-0.017,-0.056l-0.017,-0.055l-0.018,-0.056l-0.018,-0.055l-0.018,-0.055l-0.019,-0.055l-0.019,-0.054l-0.019,-0.055l-0.02,-0.054l-0.02,-0.055l-0.021,-0.054l-0.021,-0.054l-0.021,-0.054l-0.022,-0.054l-0.023,-0.054l-0.023,-0.053l-0.023,-0.054l-0.024,-0.053l-0.024,-0.054l-0.026,-0.055l-0.012,-0.025l-0.013,-0.027l-0.013,-0.026l-0.013,-0.027l-0.013,-0.026l-0.014,-0.027l-0.014,-0.027l-0.013,-0.026l-0.014,-0.027l-0.014,-0.026l-0.015,-0.027l-0.014,-0.026l-0.015,-0.027l-0.014,-0.026l-0.015,-0.027l-0.015,-0.026l-0.016,-0.027l-0.015,-0.027l-0.016,-0.026l-0.015,-0.027l-0.016,-0.026l-0.017,-0.027l-0.016,-0.026l-0.017,-0.027l-0.016,-0.026l-0.017,-0.027l-0.017,-0.026l-0.016,-0.024l-0.011,-0.019l-0.01,-0.015l-0.01,-0.016l-0.01,-0.015l-0.01,-0.015l-0.01,-0.015l-0.011,-0.014l-0.01,-0.015l-0.011,-0.014l-0.012,-0.015l-0.011,-0.014l-0.012,-0.014l-0.012,-0.014l-0.013,-0.014l-0.012,-0.013l-0.013,-0.014l-0.013,-0.014l-0.014,-0.013l-0.014,-0.014l-0.014,-0.013l-0.015,-0.013l-0.015,-0.013l-0.015,-0.013l-0.016,-0.014l-0.016,-0.013l-0.017,-0.012l-0.017,-0.013l-0.017,-0.013l-0.018,-0.013l-0.018,-0.013l-0.018,-0.012l-0.019,-0.013l-0.02,-0.012l-0.02,-0.012l-0.02,-0.013l-0.021,-0.012l-0.021,-0.012l-0.022,-0.012l-0.022,-0.012l-0.022,-0.012l-0.023,-0.011l-0.024,-0.012l-0.023,-0.012l-0.025,-0.011l-0.025,-0.011l-0.025,-0.011l-0.026,-0.011l-0.026,-0.011l-0.026,-0.011l-0.027,-0.01l-0.028,-0.011l-0.028,-0.01l-0.028,-0.01l-0.029,-0.011l-0.029,-0.009l-0.029,-0.01l-0.031,-0.01l-0.03,-0.009l-0.031,-0.009l-0.031,-0.01l-0.032,-0.008l-0.032,-0.009l-0.033,-0.009l-0.032,-0.008l-0.034,-0.009l-0.033,-0.008l-0.034,-0.008l-0.035,-0.007l-0.035,-0.008l-0.035,-0.007l-0.035,-0.008l-0.036,-0.007l-0.037,-0.007l-0.036,-0.006l-0.037,-0.007l-0.038,-0.006l-0.037,-0.006l-0.038,-0.007l-0.039,-0.005l-0.038,-0.006l-0.039,-0.006l-0.039,-0.005l-0.04,-0.005l-0.04,-0.005l-0.04,-0.005l-0.04,-0.004l-0.041,-0.005l-0.041,-0.004l-0.042,-0.004l-0.041,-0.004l-0.042,-0.004l-0.042,-0.004l-0.043,-0.003l-0.042,-0.003l-0.043,-0.004l-0.043,-0.003l-0.044,-0.002l-0.043,-0.003l-0.044,-0.003l-0.043,-0.002l-0.09,-0.004l-0.09,-0.004l-0.09,-0.003l-0.092,-0.003l-0.092,-0.002l-0.093,-0.001l-0.093,-0.001l-0.095,-0.001l-0.095,0l-0.095,0l-0.096,0.001l-0.097,0.001l-0.097,0.002l-0.098,0.002l-0.098,0.002l-0.098,0.003l-0.099,0.003l-0.1,0.003l-0.099,0.004l-0.1,0.003l-0.101,0.004l-0.1,0.005l-0.202,0.008l-0.203,0.01l-0.204,0.01l-0.203,0.01l-0.204,0.01l-0.204,0.009l-0.204,0.01l-0.102,0.004l-0.101,0.005l-0.102,0.004l-0.101,0.004l-0.101,0.004l-0.102,0.003l-0.1,0.004l-0.101,0.003l-0.1,0.002l-0.1,0.002l-0.1,0.002l-0.1,0.002l-0.099,0.001l-0.099,0.001l-0.098,0l-0.098,0l-0.098,-0.001l-0.097,-0.002l-0.097,-0.002l-0.097,-0.002l-0.096,-0.003l-0.094,-0.004l-0.049,-0.002l-0.047,-0.003l-0.048,-0.002l-0.047,-0.003l-0.047,-0.003l-0.047,-0.003l-0.047,-0.003l-0.046,-0.004l-0.047,-0.003l-0.046,-0.004l-0.046,-0.004l-0.047,-0.005l-0.046,-0.004l-0.045,-0.005l-0.046,-0.005l-0.046,-0.005l-0.045,-0.006l-0.045,-0.005l-0.045,-0.006l-0.045,-0.006l-0.045,-0.007l-0.045,-0.006l-0.044,-0.007l-0.044,-0.007l-0.045,-0.008l-0.044,-0.008l-0.043,-0.008l-0.044,-0.008l-0.043,-0.009l-0.044,-0.009l-0.043,-0.009l-0.043,-0.009l-0.043,-0.01l-0.042,-0.01l-0.043,-0.011l-0.042,-0.011l-0.042,-0.011l-0.042,-0.011l-0.042,-0.012l-0.041,-0.012l-0.025,-0.008l-0.024,-0.007l-0.025,-0.008l-0.024,-0.008l-0.024,-0.008l-0.024,-0.009l-0.024,-0.009l-0.024,-0.008l-0.024,-0.01l-0.023,-0.009l-0.024,-0.01l-0.023,-0.01l-0.023,-0.01l-0.023,-0.01l-0.023,-0.01l-0.023,-0.011l-0.023,-0.011l-0.023,-0.011l-0.022,-0.012l-0.024,-0.012l-0.043,-0.023l-0.045,-0.024l-0.043,-0.025l-0.044,-0.026l-0.043,-0.026l-0.042,-0.027l-0.042,-0.028l-0.042,-0.029l-0.041,-0.029l-0.041,-0.03l-0.041,-0.03l-0.04,-0.031l-0.04,-0.032l-0.039,-0.032l-0.04,-0.033l-0.039,-0.033l-0.038,-0.034l-0.038,-0.034l-0.038,-0.035l-0.038,-0.035l-0.037,-0.036l-0.037,-0.037l-0.037,-0.037l-0.037,-0.037l-0.036,-0.038l-0.036,-0.038l-0.036,-0.039l-0.036,-0.04l-0.035,-0.039l-0.035,-0.041l-0.035,-0.04l-0.034,-0.042l-0.035,-0.041l-0.034,-0.042l-0.034,-0.043l-0.034,-0.042l-0.033,-0.044l-0.034,-0.043l-0.033,-0.044l-0.033,-0.045l-0.033,-0.045l-0.033,-0.045l-0.032,-0.046l-0.032,-0.046l-0.032,-0.046l-0.032,-0.047l-0.032,-0.047l-0.032,-0.047l-0.031,-0.048l-0.031,-0.048l-0.031,-0.049l-0.031,-0.048l-0.031,-0.05l-0.03,-0.049l-0.031,-0.05l-0.03,-0.05l-0.03,-0.05l-0.03,-0.051l-0.03,-0.051l-0.03,-0.051l-0.029,-0.052l-0.03,-0.052l-0.029,-0.052l-0.029,-0.052l-0.029,-0.053l-0.029,-0.053l-0.028,-0.053l-0.029,-0.053l-0.028,-0.054l-0.028,-0.054l-0.028,-0.054l-0.028,-0.054l-0.028,-0.055l-0.028,-0.055l-0.027,-0.055l-0.027,-0.055l-0.028,-0.055l-0.027,-0.056l-0.027,-0.056l-0.026,-0.056l-0.027,-0.056l-0.027,-0.056l-0.026,-0.056l-0.026,-0.057l-0.026,-0.057l-0.026,-0.057l-0.026,-0.057l-0.026,-0.057l-0.025,-0.057l-0.026,-0.058l-0.05,-0.115l-0.05,-0.115l-0.049,-0.116l-0.049,-0.116l-0.048,-0.117l-0.048,-0.116l-0.047,-0.117l-0.046,-0.117l-0.046,-0.117l-0.046,-0.117l-0.045,-0.118l-0.044,-0.117l-0.044,-0.116l-0.043,-0.117l-0.042,-0.117l-0.042,-0.116l-0.042,-0.116l-0.041,-0.115l-0.04,-0.116l-0.039,-0.114l-0.04,-0.114l-0.038,-0.114l-0.038,-0.113l-0.037,-0.112l-0.037,-0.112l-0.036,-0.111l-0.036,-0.11l-0.035,-0.109l-0.034,-0.108l-0.034,-0.108l-0.033,-0.106l-0.032,-0.105l-0.032,-0.104l-0.031,-0.103l-0.031,-0.102l-0.03,-0.1l-0.029,-0.099l-0.029,-0.098l-0.028,-0.097l-0.028,-0.095l-0.026,-0.093l-0.026,-0.092l-0.026,-0.09l-0.025,-0.089l-0.024,-0.086l-0.023,-0.086l-0.045,-0.164l-0.043,-0.157l-0.039,-0.149l-0.037,-0.14l-0.034,-0.132l-0.031,-0.122l-0.029,-0.112l-0.025,-0.103l-0.023,-0.092l-0.02,-0.081l-0.016,-0.069l-0.014,-0.058l-0.019,-0.079l-0.006,-0.027l0.01,0.026l0.027,0.076l0.021,0.056l0.025,0.067l0.029,0.078l0.034,0.088l0.037,0.099l0.042,0.108l0.046,0.117l0.049,0.126l0.053,0.135l0.057,0.142l0.061,0.15l0.064,0.158l0.034,0.081l0.034,0.083l0.035,0.085l0.036,0.086l0.037,0.087l0.038,0.089l0.038,0.091l0.039,0.092l0.04,0.093l0.041,0.094l0.042,0.096l0.042,0.096l0.043,0.098l0.044,0.099l0.044,0.099l0.046,0.101l0.046,0.102l0.046,0.102l0.048,0.103l0.048,0.104l0.048,0.105l0.05,0.105l0.05,0.106l0.05,0.106l0.052,0.107l0.051,0.107l0.053,0.108l0.053,0.108l0.054,0.108l0.054,0.108l0.055,0.108l0.055,0.109l0.056,0.109l0.056,0.108l0.057,0.109l0.057,0.109l0.058,0.108l0.058,0.108l0.059,0.108l0.059,0.107l0.06,0.108l0.06,0.106l0.061,0.107l0.061,0.105l0.061,0.105l0.062,0.105l0.031,0.052l0.031,0.052l0.031,0.051l0.031,0.052l0.031,0.051l0.032,0.051l0.031,0.051l0.032,0.051l0.032,0.05l0.031,0.05l0.032,0.05l0.032,0.05l0.032,0.049l0.032,0.049l0.032,0.049l0.032,0.049l0.032,0.048l0.032,0.048l0.033,0.048l0.032,0.047l0.032,0.047l0.033,0.047l0.032,0.046l0.033,0.046l0.033,0.046l0.032,0.045l0.033,0.046l0.032,0.044l0.033,0.045l0.033,0.044l0.033,0.043l0.033,0.043l0.032,0.043l0.033,0.042l0.033,0.042l0.033,0.042l0.033,0.041l0.033,0.041l0.033,0.04l0.033,0.04l0.032,0.039l0.033,0.039l0.033,0.038l0.033,0.038l0.033,0.038l0.033,0.037l0.033,0.036l0.032,0.036l0.033,0.035l0.033,0.035l0.032,0.035l0.033,0.033l0.032,0.034l0.033,0.032l0.032,0.033l0.033,0.031l0.032,0.031l0.032,0.031l0.032,0.029l0.032,0.03l0.032,0.028l0.032,0.028l0.032,0.028l0.031,0.027l0.032,0.026l0.031,0.025l0.031,0.025l0.031,0.025l0.031,0.023l0.031,0.023l0.03,0.022l0.03,0.022l0.03,0.021l0.03,0.02l0.03,0.02l0.03,0.019l0.029,0.018l0.029,0.017l0.028,0.017l0.029,0.016l0.028,0.016l0.028,0.015l0.028,0.014l0.027,0.013l0.027,0.013l0.027,0.012l0.026,0.011l0.026,0.011l0.026,0.01l0.026,0.01l0.014,0.005l-0.005,-0.002l0.015,0.005l0.015,0.005Z" style="fill:#fff000;"/><path d="M36.13,48.515l0.011,0.044l0.016,0.059l0.02,0.075l0.025,0.091l0.029,0.105l0.033,0.119l0.037,0.132l0.042,0.145l0.045,0.157l0.025,0.083l0.025,0.086l0.026,0.089l0.028,0.091l0.028,0.094l0.029,0.097l0.03,0.099l0.032,0.101l0.032,0.104l0.033,0.106l0.034,0.108l0.035,0.111l0.036,0.112l0.037,0.114l0.038,0.117l0.038,0.118l0.04,0.12l0.04,0.121l0.042,0.123l0.042,0.125l0.043,0.126l0.044,0.127l0.045,0.129l0.046,0.13l0.047,0.131l0.047,0.133l0.048,0.133l0.049,0.134l0.05,0.135l0.051,0.136l0.052,0.137l0.052,0.137l0.053,0.138l0.054,0.139l0.055,0.139l0.055,0.139l0.057,0.139l0.057,0.14l0.058,0.14l0.029,0.07l0.029,0.07l0.03,0.07l0.03,0.07l0.029,0.07l0.031,0.07l0.03,0.07l0.03,0.07l0.031,0.07l0.031,0.069l0.031,0.07l0.031,0.07l0.031,0.069l0.032,0.069l0.032,0.07l0.032,0.069l0.032,0.069l0.032,0.069l0.032,0.069l0.033,0.068l0.033,0.069l0.032,0.068l0.033,0.068l0.034,0.068l0.033,0.067l0.034,0.068l0.033,0.067l0.034,0.067l0.034,0.067l0.035,0.066l0.034,0.067l0.034,0.066l0.035,0.065l0.035,0.066l0.035,0.065l0.035,0.065l0.035,0.064l0.036,0.064l0.035,0.064l0.036,0.064l0.036,0.063l0.036,0.063l0.036,0.062l0.037,0.062l0.036,0.062l0.037,0.061l0.036,0.061l0.037,0.06l0.037,0.06l0.037,0.06l0.038,0.059l0.037,0.059l0.038,0.058l0.037,0.058l0.038,0.057l0.038,0.057l0.038,0.056l0.038,0.056l0.039,0.055l0.038,0.055l0.038,0.054l0.039,0.053l0.039,0.053l0.039,0.053l0.039,0.052l0.039,0.051l0.039,0.051l0.039,0.05l0.04,0.049l0.039,0.049l0.04,0.048l0.04,0.048l0.039,0.047l0.04,0.046l0.04,0.046l0.04,0.045l0.04,0.044l0.041,0.043l0.04,0.043l0.04,0.042l0.041,0.041l0.04,0.041l0.041,0.04l0.04,0.039l0.041,0.038l0.041,0.038l0.041,0.037l0.04,0.036l0.042,0.035l0.02,0.017l0.02,0.017l0.021,0.017l0.02,0.017l0.021,0.016l0.02,0.017l0.021,0.016l0.02,0.015l0.021,0.016l0.02,0.016l0.021,0.015l0.02,0.015l0.021,0.015l0.021,0.014l0.02,0.015l0.021,0.014l0.02,0.014l0.021,0.013l0.02,0.014l0.021,0.013l0.02,0.013l0.021,0.013l0.02,0.013l0.021,0.012l0.021,0.012l0.02,0.012l0.021,0.012l0.02,0.011l0.021,0.012l0.02,0.011l0.021,0.01l0.02,0.011l0.021,0.01l0.02,0.011l0.021,0.009l0.02,0.01l0.021,0.01l0.02,0.009l0.021,0.009l0.02,0.008l0.021,0.009l0.02,0.008l0.021,0.008l0.02,0.008l0.021,0.008l0.02,0.007l0.02,0.007l0.021,0.007l0.02,0.007l0.021,0.006l0.02,0.006l0.02,0.006l0.021,0.006l0.02,0.005l0.02,0.006l0.021,0.005l0.02,0.004l0.02,0.005l0.021,0.004l0.02,0.004l0.02,0.004l0.021,0.004l0.02,0.003l0.02,0.003l0.021,0.003l0.02,0.003l0.02,0.002l0.02,0.002l0.021,0.002l0.02,0.002l0.02,0.001l0.021,0.001l0.02,0.001l0.02,0.001l0.021,0.001l0.02,0l0.02,0l0.021,-0.001l0.02,0l0.02,-0.001l0.021,-0.001l0.02,-0.001l0.02,-0.002l0.021,-0.001l0.02,-0.002l0.021,-0.003l0.02,-0.002l0.021,-0.003l0.02,-0.003l0.022,-0.003l0.188,-0.031l0.188,-0.031l0.187,-0.03l0.185,-0.03l0.185,-0.029l0.184,-0.029l0.182,-0.028l0.181,-0.028l0.181,-0.028l0.179,-0.026l0.178,-0.027l0.176,-0.025l0.176,-0.025l0.175,-0.025l0.173,-0.023l0.173,-0.023l0.171,-0.022l0.17,-0.022l0.169,-0.021l0.084,-0.01l0.084,-0.009l0.084,-0.01l0.083,-0.009l0.083,-0.01l0.083,-0.009l0.082,-0.008l0.082,-0.009l0.082,-0.008l0.082,-0.008l0.081,-0.008l0.081,-0.007l0.081,-0.008l0.08,-0.007l0.081,-0.007l0.08,-0.006l0.079,-0.006l0.08,-0.006l0.079,-0.006l0.079,-0.006l0.078,-0.005l0.078,-0.005l0.078,-0.004l0.078,-0.005l0.078,-0.004l0.077,-0.004l0.077,-0.003l0.076,-0.003l0.077,-0.003l0.076,-0.003l0.076,-0.002l0.075,-0.002l0.075,-0.002l0.075,-0.001l0.075,-0.001l0.075,-0.001l0.074,0l0.074,0l0.073,0l0.074,0.001l0.073,0.001l0.073,0.001l0.072,0.002l0.072,0.002l0.073,0.003l0.071,0.003l0.072,0.003l0.071,0.003l0.071,0.004l0.071,0.005l0.07,0.004l0.07,0.005l0.07,0.006l0.069,0.006l0.07,0.006l0.069,0.007l0.069,0.007l0.068,0.007l0.068,0.008l0.068,0.009l0.068,0.009l0.067,0.009l0.068,0.009l0.067,0.011l0.066,0.01l0.066,0.011l0.067,0.012l0.065,0.012l0.066,0.012l0.065,0.013l0.065,0.013l0.065,0.014l0.064,0.014l0.065,0.015l0.063,0.015l0.064,0.016l0.063,0.016l0.064,0.017l0.062,0.017l0.063,0.018l0.062,0.018l0.062,0.019l0.062,0.02l0.061,0.019l0.061,0.021l0.061,0.021l0.061,0.021l0.06,0.022l0.06,0.023l0.06,0.023l0.033,0.014l0.033,0.014l0.033,0.014l0.032,0.015l0.033,0.015l0.031,0.016l0.032,0.016l0.031,0.016l0.031,0.017l0.031,0.017l0.03,0.018l0.03,0.018l0.029,0.019l0.03,0.018l0.029,0.02l0.028,0.019l0.028,0.02l0.028,0.02l0.028,0.021l0.027,0.021l0.027,0.021l0.027,0.022l0.026,0.022l0.026,0.022l0.025,0.023l0.026,0.023l0.025,0.023l0.024,0.023l0.024,0.024l0.024,0.024l0.024,0.024l0.023,0.025l0.023,0.025l0.023,0.025l0.022,0.025l0.022,0.026l0.022,0.026l0.021,0.026l0.021,0.026l0.021,0.026l0.021,0.027l0.02,0.027l0.02,0.027l0.019,0.028l0.02,0.027l0.019,0.028l0.019,0.028l0.018,0.028l0.018,0.028l0.018,0.029l0.018,0.029l0.017,0.029l0.018,0.029l0.016,0.029l0.017,0.029l0.017,0.03l0.016,0.029l0.016,0.03l0.015,0.03l0.016,0.03l0.015,0.03l0.015,0.031l0.015,0.03l0.015,0.031l0.014,0.031l0.014,0.031l0.014,0.031l0.014,0.031l0.013,0.031l0.014,0.031l0.013,0.032l0.013,0.031l0.013,0.032l0.012,0.032l0.013,0.032l0.012,0.032l0.012,0.032l0.012,0.032l0.012,0.033l0.011,0.032l0.012,0.032l0.011,0.034l0.022,0.064l0.021,0.066l0.021,0.066l0.02,0.066l0.02,0.067l0.019,0.066l0.019,0.067l0.018,0.067l0.018,0.068l0.017,0.067l0.017,0.068l0.017,0.067l0.016,0.068l0.016,0.068l0.016,0.068l0.015,0.068l0.015,0.068l0.014,0.068l0.015,0.067l0.014,0.068l0.014,0.068l0.013,0.068l0.014,0.068l0.026,0.134l0.026,0.134l0.051,0.265l0.024,0.131l0.025,0.13l0.025,0.128l0.026,0.126l0.012,0.062l0.013,0.062l0.013,0.061l0.013,0.06l0.013,0.06l0.013,0.059l0.014,0.059l0.013,0.058l0.014,0.057l0.014,0.057l0.014,0.055l0.015,0.055l0.014,0.054l0.015,0.054l0.015,0.052l0.015,0.051l0.016,0.051l0.016,0.049l0.016,0.048l0.016,0.049l0.008,0.022l0.008,0.023l0.009,0.023l0.008,0.022l0.008,0.022l0.009,0.022l0.009,0.022l0.008,0.021l0.009,0.021l0.009,0.021l0.008,0.02l0.009,0.02l0.009,0.02l0.009,0.019l0.009,0.019l0.009,0.019l0.009,0.018l0.01,0.018l0.009,0.018l0.009,0.018l0.009,0.017l0.01,0.016l0.009,0.017l0.009,0.016l0.01,0.015l0.009,0.016l0.01,0.015l0.009,0.014l0.01,0.015l0.009,0.014l0.01,0.013l0.009,0.013l0.01,0.013l0.009,0.013l0.01,0.012l0.009,0.012l0.01,0.011l0.01,0.011l0.009,0.011l0.01,0.01l0.009,0.011l0.01,0.009l0.009,0.01l0.009,0.009l0.01,0.009l0.009,0.008l0.01,0.008l0.009,0.008l0.01,0.008l0.009,0.007l0.009,0.007l0.01,0.007l0.009,0.007l0.009,0.006l0.01,0.006l0.012,0.008l0.073,0.046l0.077,0.049l0.079,0.051l0.08,0.051l0.082,0.053l0.082,0.054l0.084,0.054l0.084,0.056l0.172,0.113l0.175,0.116l0.177,0.118l0.178,0.119l0.18,0.121l0.18,0.122l0.179,0.122l0.178,0.122l0.176,0.12l0.174,0.119l0.17,0.118l0.167,0.115l0.162,0.112l0.156,0.108l0.151,0.105l0.144,0.1l0.264,0.185l0.229,0.16l0.188,0.132l0.142,0.1l0.12,0.085l0.001,0.001l0.262,0.435l-0.121,0.495l-0.001,0.002l-0.001,0.002l-0.436,0.263l-0.494,-0.119l-0.002,-0.001l-0.116,-0.088l-0.136,-0.104l-0.182,-0.138l-0.221,-0.167l-0.256,-0.193l-0.139,-0.105l-0.146,-0.109l-0.152,-0.113l-0.156,-0.117l-0.161,-0.12l-0.165,-0.123l-0.168,-0.124l-0.17,-0.126l-0.172,-0.127l-0.173,-0.127l-0.174,-0.126l-0.173,-0.126l-0.172,-0.125l-0.17,-0.122l-0.167,-0.121l-0.165,-0.117l-0.08,-0.057l-0.08,-0.056l-0.079,-0.055l-0.077,-0.054l-0.076,-0.053l-0.075,-0.052l-0.073,-0.05l-0.073,-0.051l-0.025,-0.017l-0.026,-0.018l-0.026,-0.02l-0.025,-0.019l-0.025,-0.02l-0.025,-0.021l-0.024,-0.021l-0.024,-0.021l-0.023,-0.021l-0.023,-0.022l-0.022,-0.022l-0.023,-0.023l-0.021,-0.022l-0.021,-0.024l-0.021,-0.023l-0.02,-0.023l-0.02,-0.024l-0.02,-0.024l-0.019,-0.025l-0.019,-0.024l-0.018,-0.025l-0.018,-0.025l-0.018,-0.025l-0.017,-0.026l-0.017,-0.025l-0.017,-0.026l-0.016,-0.026l-0.016,-0.026l-0.016,-0.026l-0.015,-0.027l-0.015,-0.026l-0.015,-0.027l-0.014,-0.027l-0.014,-0.027l-0.014,-0.027l-0.014,-0.028l-0.013,-0.027l-0.013,-0.028l-0.013,-0.028l-0.013,-0.028l-0.012,-0.028l-0.012,-0.028l-0.012,-0.028l-0.011,-0.029l-0.012,-0.028l-0.011,-0.029l-0.011,-0.029l-0.011,-0.029l-0.01,-0.029l-0.011,-0.029l-0.01,-0.029l-0.01,-0.03l-0.01,-0.029l-0.009,-0.03l-0.01,-0.029l-0.009,-0.031l-0.018,-0.059l-0.018,-0.06l-0.017,-0.061l-0.016,-0.061l-0.016,-0.062l-0.015,-0.062l-0.015,-0.062l-0.015,-0.063l-0.014,-0.063l-0.013,-0.063l-0.014,-0.063l-0.013,-0.064l-0.012,-0.064l-0.012,-0.065l-0.012,-0.064l-0.012,-0.065l-0.012,-0.065l-0.011,-0.066l-0.011,-0.065l-0.011,-0.066l-0.022,-0.131l-0.02,-0.133l-0.021,-0.132l-0.02,-0.133l-0.041,-0.265l-0.021,-0.132l-0.021,-0.133l-0.01,-0.065l-0.011,-0.066l-0.011,-0.065l-0.011,-0.065l-0.011,-0.065l-0.012,-0.065l-0.012,-0.064l-0.011,-0.064l-0.013,-0.064l-0.012,-0.063l-0.013,-0.064l-0.013,-0.062l-0.013,-0.062l-0.013,-0.062l-0.014,-0.062l-0.015,-0.061l-0.014,-0.06l-0.015,-0.06l-0.015,-0.059l-0.016,-0.059l-0.016,-0.058l-0.017,-0.057l-0.017,-0.058l-0.008,-0.028l-0.009,-0.028l-0.009,-0.027l-0.008,-0.028l-0.01,-0.028l-0.009,-0.027l-0.009,-0.027l-0.009,-0.027l-0.01,-0.027l-0.009,-0.026l-0.01,-0.027l-0.01,-0.026l-0.01,-0.026l-0.01,-0.026l-0.01,-0.025l-0.011,-0.026l-0.01,-0.025l-0.011,-0.025l-0.01,-0.025l-0.011,-0.024l-0.011,-0.024l-0.011,-0.024l-0.011,-0.024l-0.012,-0.024l-0.011,-0.023l-0.012,-0.024l-0.011,-0.023l-0.012,-0.022l-0.012,-0.023l-0.012,-0.022l-0.012,-0.022l-0.013,-0.022l-0.012,-0.021l-0.013,-0.022l-0.012,-0.021l-0.013,-0.02l-0.013,-0.021l-0.013,-0.02l-0.014,-0.02l-0.013,-0.02l-0.014,-0.02l-0.013,-0.019l-0.014,-0.019l-0.014,-0.019l-0.014,-0.018l-0.014,-0.019l-0.015,-0.018l-0.014,-0.017l-0.015,-0.018l-0.015,-0.017l-0.015,-0.017l-0.015,-0.017l-0.015,-0.017l-0.016,-0.016l-0.015,-0.016l-0.016,-0.016l-0.016,-0.015l-0.016,-0.016l-0.016,-0.015l-0.017,-0.015l-0.016,-0.014l-0.017,-0.014l-0.017,-0.015l-0.017,-0.013l-0.017,-0.014l-0.018,-0.013l-0.018,-0.014l-0.017,-0.012l-0.019,-0.013l-0.018,-0.013l-0.019,-0.012l-0.018,-0.012l-0.019,-0.011l-0.02,-0.012l-0.019,-0.011l-0.02,-0.011l-0.02,-0.011l-0.02,-0.011l-0.021,-0.01l-0.021,-0.01l-0.021,-0.01l-0.022,-0.01l-0.05,-0.021l-0.051,-0.022l-0.052,-0.021l-0.052,-0.021l-0.052,-0.02l-0.053,-0.02l-0.053,-0.019l-0.054,-0.019l-0.054,-0.018l-0.054,-0.019l-0.055,-0.017l-0.055,-0.018l-0.056,-0.017l-0.056,-0.016l-0.056,-0.016l-0.056,-0.016l-0.057,-0.015l-0.058,-0.015l-0.058,-0.015l-0.058,-0.014l-0.058,-0.014l-0.059,-0.013l-0.059,-0.013l-0.06,-0.013l-0.06,-0.012l-0.061,-0.012l-0.06,-0.011l-0.062,-0.011l-0.061,-0.011l-0.062,-0.01l-0.062,-0.01l-0.063,-0.01l-0.063,-0.009l-0.064,-0.009l-0.064,-0.009l-0.064,-0.008l-0.064,-0.008l-0.065,-0.007l-0.066,-0.007l-0.065,-0.007l-0.066,-0.006l-0.067,-0.007l-0.067,-0.005l-0.067,-0.006l-0.067,-0.005l-0.068,-0.005l-0.069,-0.004l-0.068,-0.004l-0.069,-0.004l-0.069,-0.004l-0.07,-0.003l-0.07,-0.003l-0.071,-0.002l-0.071,-0.002l-0.071,-0.002l-0.071,-0.002l-0.072,-0.001l-0.072,-0.001l-0.073,-0.001l-0.073,0l-0.073,-0.001l-0.074,0l-0.074,0.001l-0.074,0.001l-0.075,0.001l-0.075,0.001l-0.075,0.001l-0.076,0.002l-0.076,0.002l-0.076,0.002l-0.077,0.003l-0.077,0.003l-0.078,0.003l-0.077,0.003l-0.078,0.004l-0.079,0.003l-0.079,0.005l-0.079,0.004l-0.079,0.004l-0.08,0.005l-0.08,0.005l-0.081,0.005l-0.08,0.006l-0.082,0.005l-0.081,0.006l-0.082,0.006l-0.082,0.006l-0.082,0.007l-0.083,0.007l-0.083,0.006l-0.167,0.015l-0.169,0.015l-0.17,0.016l-0.171,0.016l-0.172,0.017l-0.174,0.018l-0.175,0.019l-0.176,0.019l-0.177,0.019l-0.179,0.021l-0.18,0.02l-0.181,0.021l-0.182,0.022l-0.184,0.022l-0.185,0.023l-0.186,0.023l-0.187,0.023l-0.189,0.024l-0.19,0.024l-0.026,0.003l-0.027,0.003l-0.027,0.003l-0.027,0.002l-0.027,0.002l-0.026,0.002l-0.027,0.001l-0.027,0.001l-0.026,0.001l-0.027,0l-0.027,0l-0.026,0l-0.027,-0.001l-0.026,-0.001l-0.027,-0.001l-0.026,-0.002l-0.026,-0.002l-0.026,-0.002l-0.027,-0.002l-0.026,-0.003l-0.026,-0.003l-0.026,-0.004l-0.026,-0.003l-0.026,-0.004l-0.026,-0.005l-0.026,-0.004l-0.025,-0.005l-0.026,-0.006l-0.026,-0.005l-0.025,-0.006l-0.026,-0.006l-0.025,-0.006l-0.026,-0.007l-0.025,-0.007l-0.026,-0.007l-0.025,-0.008l-0.025,-0.007l-0.025,-0.008l-0.025,-0.009l-0.025,-0.008l-0.025,-0.009l-0.025,-0.009l-0.024,-0.01l-0.025,-0.009l-0.025,-0.01l-0.024,-0.01l-0.025,-0.011l-0.024,-0.01l-0.025,-0.011l-0.024,-0.011l-0.024,-0.012l-0.024,-0.011l-0.024,-0.012l-0.024,-0.012l-0.024,-0.013l-0.024,-0.012l-0.024,-0.013l-0.024,-0.013l-0.023,-0.014l-0.024,-0.013l-0.023,-0.014l-0.024,-0.014l-0.023,-0.014l-0.024,-0.015l-0.023,-0.015l-0.023,-0.014l-0.023,-0.016l-0.023,-0.015l-0.024,-0.015l-0.022,-0.016l-0.023,-0.016l-0.023,-0.016l-0.023,-0.017l-0.023,-0.017l-0.022,-0.016l-0.023,-0.017l-0.023,-0.018l-0.022,-0.017l-0.022,-0.018l-0.023,-0.018l-0.022,-0.018l-0.022,-0.018l-0.022,-0.018l-0.023,-0.019l-0.022,-0.019l-0.022,-0.019l-0.022,-0.019l-0.022,-0.02l-0.021,-0.019l-0.022,-0.02l-0.044,-0.04l-0.043,-0.041l-0.043,-0.042l-0.042,-0.042l-0.043,-0.043l-0.042,-0.044l-0.042,-0.044l-0.042,-0.046l-0.042,-0.045l-0.041,-0.047l-0.042,-0.047l-0.041,-0.048l-0.041,-0.048l-0.04,-0.049l-0.041,-0.05l-0.04,-0.05l-0.04,-0.051l-0.04,-0.052l-0.04,-0.052l-0.039,-0.052l-0.04,-0.054l-0.039,-0.053l-0.039,-0.055l-0.038,-0.055l-0.039,-0.055l-0.038,-0.056l-0.039,-0.056l-0.038,-0.057l-0.037,-0.058l-0.038,-0.058l-0.038,-0.058l-0.037,-0.059l-0.037,-0.059l-0.037,-0.06l-0.037,-0.06l-0.036,-0.061l-0.036,-0.061l-0.037,-0.062l-0.036,-0.062l-0.036,-0.062l-0.035,-0.063l-0.036,-0.063l-0.035,-0.064l-0.035,-0.064l-0.035,-0.064l-0.035,-0.064l-0.034,-0.065l-0.035,-0.066l-0.034,-0.065l-0.034,-0.066l-0.034,-0.066l-0.033,-0.067l-0.034,-0.067l-0.033,-0.067l-0.033,-0.067l-0.033,-0.068l-0.033,-0.068l-0.033,-0.068l-0.032,-0.068l-0.032,-0.069l-0.032,-0.069l-0.032,-0.069l-0.032,-0.069l-0.031,-0.07l-0.032,-0.069l-0.031,-0.07l-0.031,-0.07l-0.03,-0.07l-0.031,-0.071l-0.03,-0.07l-0.03,-0.071l-0.03,-0.07l-0.03,-0.071l-0.03,-0.071l-0.029,-0.071l-0.03,-0.071l-0.029,-0.071l-0.029,-0.072l-0.028,-0.071l-0.029,-0.071l-0.028,-0.072l-0.028,-0.071l-0.028,-0.072l-0.028,-0.071l-0.028,-0.072l-0.027,-0.071l-0.027,-0.072l-0.027,-0.071l-0.027,-0.072l-0.053,-0.142l-0.052,-0.143l-0.052,-0.142l-0.05,-0.142l-0.05,-0.142l-0.05,-0.141l-0.048,-0.14l-0.048,-0.14l-0.046,-0.139l-0.046,-0.138l-0.046,-0.137l-0.044,-0.137l-0.043,-0.135l-0.043,-0.135l-0.042,-0.133l-0.041,-0.132l-0.041,-0.13l-0.039,-0.13l-0.039,-0.128l-0.038,-0.126l-0.037,-0.125l-0.036,-0.123l-0.035,-0.121l-0.035,-0.12l-0.033,-0.118l-0.033,-0.115l-0.032,-0.114l-0.031,-0.112l-0.03,-0.109l-0.029,-0.108l-0.029,-0.105l-0.027,-0.102l-0.027,-0.101l-0.026,-0.097l-0.025,-0.095l-0.024,-0.093l-0.023,-0.089l-0.022,-0.087l-0.021,-0.084l-0.04,-0.159l-0.037,-0.147l-0.032,-0.133l-0.029,-0.12l-0.025,-0.106l-0.021,-0.092l-0.018,-0.076l-0.014,-0.06l-0.009,-0.043l-0.008,-0.036l0.009,0.035Z" style="fill:#eddd00;"/><path d="M42.524,54.738l4.784,3.735l5.668,4.441l2.767,2.181l2.523,2l2.129,1.706l0.869,0.707l0.715,0.589l0.19,0.196l0.154,0.227l0.21,0.475l0.134,0.543l0.001,0.004l-0.005,0.001l-0.558,-0.035l-0.505,-0.122l-0.251,-0.11l-0.226,-0.152l-0.709,-0.597l-0.851,-0.729l-2.06,-1.788l-2.421,-2.123l-2.642,-2.331l-5.387,-4.778l-4.533,-4.036l-0.06,-0.054l0.064,0.05Z" style="fill:#fff;"/></g><g id="Burger1" serif:id="Burger"><g id="Outline"><g id="Top-Bun" serif:id="Top Bun"><path d="M26.649,33.576c0,0 23.589,10.094 23.653,9.941c0.064,-0.152 0.204,0.405 0.765,-2.536c0.38,-1.992 -4.159,-6.265 -5.272,-6.967c-1.114,-0.701 -3.471,-1.899 -4.256,-2.216c-0.786,-0.318 -5.781,-1.727 -6.815,-1.761c-1.198,-0.04 -4.151,-0.355 -5.213,0.12c-1.063,0.475 -1.977,1.344 -2.322,2.06c-0.346,0.716 -0.54,1.359 -0.54,1.359Z" style="fill:#cca949;stroke:#cca949;stroke-width:0.22px;stroke-linecap:round;stroke-linejoin:round;"/></g><g id="Tomatoes"><path d="M24.644,36.265c0,0 -1.288,0.799 -1.181,1.434c0.106,0.635 12.501,5.88 12.985,5.766c0.485,-0.113 0.83,-1.056 0.53,-1.26c-0.3,-0.203 -12.334,-5.94 -12.334,-5.94Z" style="fill:#f30;stroke:#f30;stroke-width:0.22px;stroke-linecap:round;stroke-linejoin:round;"/><path d="M38.577,41.602c0,0 -1.811,1.606 -1.283,1.876c0.528,0.269 6.143,2.215 6.31,2.659c0.168,0.443 3.293,2.03 3.737,2.105c0.445,0.076 4.654,2.26 5.014,2.108c0.361,-0.153 1.027,-0.81 0.879,-1.494c-0.148,-0.684 -6.018,-3.124 -6.986,-3.51c-0.968,-0.386 -7.671,-3.744 -7.671,-3.744Z" style="fill:#f30;stroke:#f30;stroke-width:0.22px;stroke-linecap:round;stroke-linejoin:round;"/></g><g id="Lettuce"><path d="M24.986,35.721c-0.15,-0.381 -0.881,0.17 -0.881,0.17c0,0 0.082,0.132 -0.31,-0.362c-0.392,-0.494 -1.819,0.244 -2.082,0.555c-0.263,0.31 0.779,-1.558 -0.357,-1.349c-1.137,0.209 1.297,-0.102 0.681,-0.522c-0.615,-0.421 1.024,0.467 0.739,-0.383c-0.285,-0.85 0.85,-0.867 0.258,-1.163c-0.593,-0.296 0.94,-0.022 0.925,0.273c-0.016,0.295 0.001,0.027 -0.067,0.434c-0.068,0.408 0.041,0.106 0.294,0.124c0.253,0.018 0.396,-0.505 0.387,-0.646c-0.008,-0.141 -0.011,0.37 0.368,0.501c0.378,0.131 0.499,-0.594 0.412,-0.982c-0.086,-0.388 0.331,0.896 0.637,0.961c0.305,0.064 -0.395,0.532 0.088,0.615c0.483,0.082 0.306,0.688 0.785,0.33c0.479,-0.359 0.469,1.407 0.9,0.609c0.431,-0.799 0.417,0.618 0.63,0.149c0.213,-0.468 1.081,0.943 1.277,0.537c0.196,-0.406 1.142,0.473 1.137,0.593c-0.005,0.121 0.502,1.395 0.89,1.183c0.387,-0.212 0.298,-0.741 0.821,-0.579c0.523,0.162 0.313,0.787 0.718,0.764c0.406,-0.023 1.155,0.425 1.515,0.521c0.359,0.096 0.792,0.395 1.064,0.216c0.272,-0.178 1.712,0.469 1.933,0.813c0.221,0.344 0.839,0.892 1.21,0.508c0.37,-0.383 0.262,1.322 0.734,1.002c0.472,-0.32 0.99,-0.144 1.116,-0.455c0.126,-0.311 -0.158,0.619 0.581,0.818c0.738,0.198 1.022,-0.208 1.776,0.172c0.753,0.381 1.237,0.796 1.323,1.25c0.086,0.454 0.573,0.062 0.837,-0.342c0.264,-0.403 -0.523,0.668 0.044,0.712c0.566,0.044 1.939,0.904 2.23,0.475c0.292,-0.428 -0.057,0.295 0.9,0.61c0.957,0.314 0.396,-0.31 0.754,-0.146c0.358,0.165 1.353,0.787 1.747,0.503c0.394,-0.283 -0.376,1.136 0.32,0.629c0.695,-0.507 1.214,-2.143 1.363,-2.694c0.15,-0.551 -0.314,2.186 0.931,1.084c1.245,-1.101 -1.774,1.829 -0.717,1.432c4.054,-1.522 0.807,-0.31 1.369,-0.233c0.562,0.077 -3.951,1.331 -1.167,1.127c2.784,-0.204 -2.309,0.625 0.848,1.281c3.157,0.655 -4.553,-0.767 -1.623,0.011c2.931,0.778 -1.414,-0.044 -0.836,0.342c0.577,0.385 -1.535,-1.209 -2.078,-1.105c-0.544,0.105 -1.744,-1.594 -1.727,-0.841c0.018,0.754 -2.904,-1.925 -1.964,-0.825c0.941,1.099 -1.929,-1.48 -1.643,-1.038c0.285,0.442 -3.934,-2.608 -2.161,-0.908c1.773,1.7 -5.181,-2.953 -4.346,-1.48c0.835,1.473 -2.034,-0.996 -2.065,-0.311c-0.031,0.686 -0.465,-0.827 -1.3,-0.757c-0.834,0.07 -3.748,-1.314 -3.276,-1.377c0.471,-0.062 -3.379,-2.527 -3.712,-1.791c-0.332,0.736 -1.551,-1.644 -1.477,-1.083c0.074,0.561 -0.604,0.448 -0.753,0.068Z" style="fill:#00cd00;stroke:#00cd00;stroke-width:0.22px;stroke-linecap:round;stroke-linejoin:round;"/></g><g id="Burger2" serif:id="Burger"><path d="M22.544,42.106c0,0 -1.332,-0.92 -0.901,-1.706c0.432,-0.787 1.068,-0.416 1.165,-0.573c0.098,-0.157 1.634,1.233 2.167,1.442c0.534,0.209 3.157,1.108 3.732,1.568c0.575,0.461 0.9,0.546 1.476,0.887c0.576,0.34 0.836,0.849 1.185,1.029c0.35,0.18 0.297,0.072 0.786,0.33c0.489,0.259 1.605,0.382 2.161,0.908c0.555,0.526 2.591,0.571 2.939,0.704c0.348,0.133 0.928,-0.027 1.862,0.518c0.935,0.544 1.172,1.311 1.876,1.585c0.704,0.274 1.027,0.13 1.571,0.66c0.545,0.531 1.06,0.138 1.863,0.517c0.803,0.38 1.661,1.179 2.167,1.443c0.506,0.263 1.982,0.776 2.851,1.464c0.87,0.687 1.049,1.016 1.483,1.42c0.434,0.403 0.49,0.874 -0.278,1.211c-0.767,0.337 -0.379,0.358 -0.975,0.121c-0.597,-0.237 -0.892,-1.047 -1.287,-1.337c-0.394,-0.291 -2.985,-2.324 -3.548,-2.554c-0.564,-0.23 -4.115,-1.628 -5.005,-1.838c-0.89,-0.211 -3.541,-1.376 -3.63,-1.26c-0.09,0.115 -6.236,-2.726 -5.5,-2.312c0.737,0.414 -8.371,-4.274 -8.16,-4.227Z" style="fill:#591107;stroke:#591107;stroke-width:0.22px;stroke-linecap:round;stroke-linejoin:round;"/></g><g id="Cheese"><path d="M23.114,38.349c0.018,0.066 -0.361,0.5 -0.359,0.818c0.001,0.319 29.384,13.098 29.431,12.925c0.007,-0.027 0.219,-0.579 0.269,-0.614c0.051,-0.036 -29.356,-13.185 -29.341,-13.129Z" style="fill:#fc3;stroke:#fc3;stroke-width:0.22px;stroke-linecap:round;stroke-linejoin:round;"/></g><g id="Bottom-Bun" serif:id="Bottom Bun"><path d="M46.259,53.449c0.308,0.379 -0.451,1.673 -0.826,1.964c-0.375,0.292 -0.687,0.57 -1.984,0.322c-1.296,-0.249 -7.105,-2.517 -7.824,-2.827c-0.72,-0.31 -12.82,-5.305 -13.976,-6.336c-1.156,-1.031 -1.382,-0.92 -1.241,-1.446c0.14,-0.526 0.531,-1.711 0.825,-1.964c0.294,-0.254 4.94,1.753 5.778,2.197c0.839,0.445 18.939,7.712 19.248,8.09Z" style="fill:#cca949;stroke:#cca949;stroke-width:0.22px;stroke-linecap:round;stroke-linejoin:round;"/></g></g><g id="Shadow"><g id="Bun-Shadow" serif:id="Bun Shadow"><path d="M35.235,30.095c0,0 -3.031,-0.278 -4.463,-0.227c-0.615,0.022 -1.262,0.136 -1.842,0.419c-0.505,0.246 -0.936,0.535 -1.402,1.157c-0.504,0.673 -0.919,2.134 -0.919,2.134c0,0 1.169,-1.491 1.761,-1.974c0.591,-0.484 0.659,-0.773 1.759,-1.084c0.479,-0.136 0.726,-0.122 1.265,-0.243c0.909,-0.205 3.841,-0.182 3.841,-0.182Z" style="fill:#d7b96f;stroke:#d7b96f;stroke-width:0.22px;stroke-linecap:round;stroke-linejoin:round;"/><path d="M37.348,32.366c1.336,0.427 2.598,1.508 2.489,1.849c-0.11,0.342 -1.566,-0.567 -2.902,-0.994c-1.336,-0.427 -2.344,-0.444 -2.235,-0.786c0.11,-0.342 1.313,-0.497 2.648,-0.069Z" style="fill:#d7b96f;stroke:#d7b96f;stroke-width:0.22px;stroke-linecap:round;stroke-linejoin:round;"/><path d="M44.481,41.201l5.911,2.417c0,0 1.113,-2.428 0.625,-3.734c-0.487,-1.307 -3.29,-4.436 -4.663,-5.485c-1.97,-1.506 -3.809,-2.036 -4.485,-2.484c-0.503,-0.333 5.975,4.027 6.482,7.028c0.507,3.001 -3.87,2.258 -3.87,2.258Z" style="fill:#bf9836;stroke:#bf9836;stroke-width:0.22px;stroke-linecap:round;stroke-linejoin:round;"/><path d="M25.779,48.683c0,0 8.605,4.127 10.991,5.085c2.386,0.958 6.485,2.185 7.271,2.143c0.786,-0.043 1.334,-0.257 1.732,-0.771c0.398,-0.513 0.681,-1.202 0.582,-1.588c-0.099,-0.387 -1.733,-0.828 -2.328,-0.893c-0.595,-0.066 -18.248,-3.976 -18.248,-3.976Z" style="fill:#bf9836;stroke:#bf9836;stroke-width:0.22px;stroke-linecap:round;stroke-linejoin:round;"/></g><g id="Tomato-shadow" serif:id="Tomato shadow"><path d="M23.617,37.951c0,0 13.051,3.923 13.413,4.215c0.362,0.291 0.074,1.223 -0.513,1.385c-0.348,0.096 -5.476,-1.952 -9.083,-3.664c-2.469,-1.173 -3.817,-1.936 -3.817,-1.936Z" style="fill:#e62e00;stroke:#e62e00;stroke-width:0.09px;stroke-linecap:round;stroke-linejoin:round;"/><path d="M37.622,43.678c0.678,0.188 14.952,4.119 15.547,4.958c0.595,0.839 -0.427,1.679 -0.926,1.838c-0.101,0.032 -8.696,-3.555 -8.575,-4.106c0.121,-0.55 -6.121,-2.711 -6.046,-2.69Z" style="fill:#e62e00;stroke:#e62e00;stroke-width:0.09px;stroke-linecap:round;stroke-linejoin:round;"/></g></g></g></g></g><defs><radialGradient id="_Radial2" cx="0" cy="0" r="1" gradientUnits="userSpaceOnUse" gradientTransform="matrix(7.85459,0,0,7.85459,36.8804,16.4902)"><stop offset="0" style="stop-color:#f00;stop-opacity:1"/><stop offset="1" style="stop-color:#fd7a00;stop-opacity:1"/></radialGradient><radialGradient id="_Radial3" cx="0" cy="0" r="1" gradientUnits="userSpaceOnUse" gradientTransform="matrix(15.5543,0,0,15.5543,16.7851,15.9866)"><stop offset="0" style="stop-color:#ff0808;stop-opacity:1"/><stop offset="0.57" style="stop-color:#ff1f06;stop-opacity:1"/><stop offset="1" style="stop-color:#fd7a00;stop-opacity:1"/></radialGradient></defs></svg>