<?xml version="1.0" encoding="UTF-8" standalone="no"?><!DOCTYPE svg PUBLIC "-//W3C//DTD SVG 1.1//EN" "http://www.w3.org/Graphics/SVG/1.1/DTD/svg11.dtd"><svg width="100%" height="100%" viewBox="0 0 5 5" version="1.1" xmlns="http://www.w3.org/2000/svg" xmlns:xlink="http://www.w3.org/1999/xlink" xml:space="preserve" xmlns:serif="http://www.serif.com/" style="fill-rule:evenodd;clip-rule:evenodd;stroke-linecap:round;stroke-linejoin:round;stroke-miterlimit:1.5;"><g><g><g><path d="M1.477,4.42c0,0 0.128,-0.079 0.328,-0.456c0.199,-0.378 0.039,-0.746 0.039,-0.746c0,0 -0.419,0.269 -0.816,0.26c-0.398,-0.008 -1.068,-0.548 -0.67,-1.197c0.397,-0.648 1.886,-1.95 1.886,-1.95l0.377,4.089l-1.144,0Z" style="fill:#2c2a23;"/><path d="M3.01,4.42c0,0 -0.128,-0.079 -0.327,-0.456c-0.2,-0.378 -0.039,-0.746 -0.039,-0.746c0,0 0.419,0.269 0.816,0.26c0.397,-0.008 1.067,-0.548 0.67,-1.197c-0.398,-0.648 -1.886,-1.95 -1.886,-1.95l-0.306,4.089l1.072,0Z" style="fill:#2c2a23;"/></g></g><g><g><g><path d="M2.746,-5.457c0,0 0.207,0.707 0.672,1.617c0.244,0.476 0.468,0.975 0.626,1.342c0.144,0.333 0.261,0.697 0.245,0.959c-0.017,0.263 -0.452,0.694 -0.896,0.582c-0.443,-0.113 -0.743,-0.907 -0.743,-0.907l-0.304,0.031c0,0 0.398,1.164 1.015,1.198c0.616,0.035 1.293,-0.506 1.297,-0.862c0.01,-0.723 -0.694,-1.771 -1.015,-2.434c-0.322,-0.663 -1.092,-1.825 -1.092,-1.825l0.195,0.299Z" style="fill:#2c2a23;stroke:#2c2a23;stroke-width:0.22px;"/></g></g></g></g></svg>